<?xml version="1.0" encoding="utf-8" standalone="no"?><svg xmlns="http://www.w3.org/2000/svg" xmlns:xlink="http://www.w3.org/1999/xlink" width="33.07086614173228mm" height="28.092456184912372mm" viewBox="4010 3418 130.2 110.6"><title>Photo View</title><rect x="4010" y="3418" width="130.2" height="110.6" fill="#000000" stroke="none"/><defs xmlns="http://www.w3.org/2000/svg" id="patterns"><pattern id="gridPattern" x="4000" y="3000" width="10" height="10" patternUnits="userSpaceOnUse"><rect id="gridCell" x="0" y="0" width="0.50001" height="0.50001" fill="#FFFFFF" stroke="none"/></pattern><pattern id="gridPattern2" x="4000.50001" y="3000.50001" width="10" height="10" patternUnits="userSpaceOnUse"><path id="gridCell2" d="M10 0V10H-10" fill="none" stroke="#FFFFFF" stroke-width="0.50001" stroke-opacity="0.6"/></pattern><marker id="arrowOnStart" orient="auto" refY="0" refX="0" style="overflow:visible" markerUnits="strokeWidth"><path d="M 2,0 l 4,-2, 0,4 z" stroke-width="6"/></marker><marker id="arrowOnEnd" orient="auto" refY="0" refX="0" style="overflow:visible" markerUnits="strokeWidth"><path d="M -2,0 l -4,-2, 0,4 z" stroke-width="6"/></marker><marker id="arrowOnStartChrome" orient="auto" refY="0" refX="0" style="overflow:visible" markerUnits="strokeWidth"><path d="M 2,0 l 4,-2, 0,4 z" stroke-width="3" stroke="#FFFFFF"/></marker><marker id="arrowOnEndChrome" orient="auto" refY="0" refX="0" style="overflow:visible" markerUnits="strokeWidth"><path d="M -2,0 l -4,-2, 0,4 z" stroke-width="3" stroke="#FFFFFF"/></marker><svg id="icon-lock" title="Unlock" viewBox="0 0 20 20" height="20" width="20"><path stroke="#F0F" stroke-width="2" style="cursor:pointer;fill-opacity:.001;fill:#fff" d="M 5 7 C 5 -1 15 -1 15 7L1 7 1 19 19 19 19 7 15 7"/></svg><mask id="multiLayerMask" maskUnits="userSpaceOnUse" x="4020" y="3428" width="110.2" height="90.6"><path d="M4020 3518.551,4020 3459.4961,4043.6156 3459.496,4043.6212 3459.4958,4043.6218 3459.4958,4043.6219 3459.4946,4043.622 3459.4882,4043.622 3428,4130.236 3428,4130.236 3487.055,4106.622 3487.0549,4106.614 3487.0551,4106.6138 3487.0627,4106.6138 3518.551z" stroke="none" fill="white"/><g fill="black"><circle cx="4054.53" cy="3445.9087" r="1.9685" stroke-width="0"/><circle cx="4064.53" cy="3445.9087" r="1.9685" stroke-width="0"/><circle cx="4074.53" cy="3445.9087" r="1.9685" stroke-width="0"/><circle cx="4084.53" cy="3445.9087" r="1.9685" stroke-width="0"/><circle cx="4094.53" cy="3445.9087" r="1.9685" stroke-width="0"/><circle cx="4104.53" cy="3445.9087" r="1.9685" stroke-width="0"/><circle cx="4077.874" cy="3512.005" r="0.6398" stroke-width="0"/><circle cx="4027.874" cy="3506.74" r="3.937" stroke-width="0"/><circle cx="4120.394" cy="3437.843" r="3.937" stroke-width="0"/></g></mask><mask id="topBoardSolderMask" maskUnits="userSpaceOnUse" x="4020" y="3428" width="110.2" height="90.6"><path d="M4020 3518.551,4020 3459.4961,4043.6156 3459.496,4043.6212 3459.4958,4043.6218 3459.4958,4043.6219 3459.4946,4043.622 3459.4882,4043.622 3428,4130.236 3428,4130.236 3487.055,4106.622 3487.0549,4106.614 3487.0551,4106.6138 3487.0627,4106.6138 3518.551z" stroke="none" fill="white"/><g fill="black"><polygon points="4085.551 3506.153 4085.489 3506.143 4085.433 3506.115 4085.389 3506.071 4085.361 3506.015 4085.351 3505.953 4085.351 3502.803 4085.361 3502.741 4085.389 3502.685 4085.433 3502.641 4085.489 3502.613 4085.551 3502.603 4089.094 3502.603 4089.156 3502.613 4089.212 3502.641 4089.256 3502.685 4089.284 3502.741 4089.294 3502.803 4089.294 3505.953 4089.284 3506.015 4089.256 3506.071 4089.212 3506.115 4089.156 3506.143 4089.094 3506.153" stroke-width="0" c_etype="pad_outer"/><polygon points="4085.551 3511.664 4085.489 3511.654 4085.433 3511.626 4085.389 3511.582 4085.361 3511.526 4085.351 3511.464 4085.351 3508.315 4085.361 3508.253 4085.389 3508.197 4085.433 3508.153 4085.489 3508.125 4085.551 3508.115 4089.094 3508.115 4089.156 3508.125 4089.212 3508.153 4089.256 3508.197 4089.284 3508.253 4089.294 3508.315 4089.294 3511.464 4089.284 3511.526 4089.256 3511.582 4089.212 3511.626 4089.156 3511.654 4089.094 3511.664" stroke-width="0" c_etype="pad_outer"/><polygon points="4069.778 3497.224 4069.716 3497.214 4069.66 3497.186 4069.616 3497.142 4069.588 3497.086 4069.578 3497.024 4069.578 3493.622 4069.588 3493.56 4069.616 3493.504 4069.66 3493.46 4069.716 3493.432 4069.778 3493.422 4072.953 3493.422 4073.015 3493.432 4073.071 3493.46 4073.115 3493.504 4073.143 3493.56 4073.153 3493.622 4073.153 3497.024 4073.143 3497.086 4073.115 3497.142 4073.071 3497.186 4073.015 3497.214 4072.953 3497.224" stroke-width="0" c_etype="pad_outer"/><polygon points="4075.709 3497.224 4075.647 3497.214 4075.591 3497.186 4075.547 3497.142 4075.519 3497.086 4075.509 3497.024 4075.509 3493.622 4075.519 3493.56 4075.547 3493.504 4075.591 3493.46 4075.647 3493.432 4075.709 3493.422 4078.884 3493.422 4078.946 3493.432 4079.002 3493.46 4079.046 3493.504 4079.074 3493.56 4079.084 3493.622 4079.084 3497.024 4079.074 3497.086 4079.046 3497.142 4079.002 3497.186 4078.946 3497.214 4078.884 3497.224" stroke-width="0" c_etype="pad_outer"/><polygon points="4076.693 3505.063 4076.632 3505.053 4076.577 3505.025 4076.534 3504.982 4076.506 3504.927 4076.496 3504.866 4076.496 3502.811 4076.506 3502.75 4076.534 3502.695 4076.577 3502.652 4076.632 3502.624 4076.693 3502.614 4079.055 3502.614 4079.116 3502.624 4079.171 3502.652 4079.214 3502.695 4079.242 3502.75 4079.252 3502.811 4079.252 3504.866 4079.242 3504.927 4079.214 3504.982 4079.171 3505.025 4079.116 3505.053 4079.055 3505.063" stroke-width="0" c_etype="pad_outer"/><polygon points="4080.236 3505.063 4080.175 3505.053 4080.12 3505.025 4080.077 3504.982 4080.049 3504.927 4080.039 3504.866 4080.039 3502.811 4080.049 3502.75 4080.077 3502.695 4080.12 3502.652 4080.175 3502.624 4080.236 3502.614 4082.598 3502.614 4082.659 3502.624 4082.714 3502.652 4082.757 3502.695 4082.785 3502.75 4082.795 3502.811 4082.795 3504.866 4082.785 3504.927 4082.757 3504.982 4082.714 3505.025 4082.659 3505.053 4082.598 3505.063" stroke-width="0" c_etype="pad_outer"/><polygon points="4080.236 3508.299 4080.175 3508.289 4080.12 3508.261 4080.077 3508.218 4080.049 3508.163 4080.039 3508.102 4080.039 3506.047 4080.049 3505.986 4080.077 3505.931 4080.12 3505.888 4080.175 3505.86 4080.236 3505.85 4082.598 3505.85 4082.659 3505.86 4082.714 3505.888 4082.757 3505.931 4082.785 3505.986 4082.795 3506.047 4082.795 3508.102 4082.785 3508.163 4082.757 3508.218 4082.714 3508.261 4082.659 3508.289 4082.598 3508.299" stroke-width="0" c_etype="pad_outer"/><polygon points="4073.15 3508.299 4073.089 3508.289 4073.034 3508.261 4072.991 3508.218 4072.963 3508.163 4072.953 3508.102 4072.953 3506.047 4072.963 3505.986 4072.991 3505.931 4073.034 3505.888 4073.089 3505.86 4073.15 3505.85 4075.512 3505.85 4075.573 3505.86 4075.628 3505.888 4075.671 3505.931 4075.699 3505.986 4075.709 3506.047 4075.709 3508.102 4075.699 3508.163 4075.671 3508.218 4075.628 3508.261 4075.573 3508.289 4075.512 3508.299" stroke-width="0" c_etype="pad_outer"/><polygon points="4073.15 3505.063 4073.089 3505.053 4073.034 3505.025 4072.991 3504.982 4072.963 3504.927 4072.953 3504.866 4072.953 3502.811 4072.963 3502.75 4072.991 3502.695 4073.034 3502.652 4073.089 3502.624 4073.15 3502.614 4075.512 3502.614 4075.573 3502.624 4075.628 3502.652 4075.671 3502.695 4075.699 3502.75 4075.709 3502.811 4075.709 3504.866 4075.699 3504.927 4075.671 3504.982 4075.628 3505.025 4075.573 3505.053 4075.512 3505.063" stroke-width="0" c_etype="pad_outer"/><polygon points="4077.863 3515.398 4077.794 3515.394 4077.77 3515.391 4077.703 3515.379 4077.681 3515.373 4077.615 3515.353 4077.594 3515.346 4077.531 3515.319 4077.512 3515.309 4077.452 3515.275 4077.431 3515.262 4077.376 3515.221 4077.358 3515.205 4077.308 3515.157 4077.294 3515.142 4077.25 3515.09 4077.234 3515.069 4077.197 3515.011 4077.187 3514.994 4077.156 3514.933 4077.148 3514.913 4077.124 3514.849 4077.116 3514.826 4077.1 3514.759 4077.096 3514.736 4077.088 3514.667 4077.087 3514.644 4077.087 3514.576 4077.088 3514.553 4077.096 3514.485 4077.1 3514.462 4077.116 3514.395 4077.123 3514.373 4077.147 3514.308 4077.156 3514.287 4077.187 3514.226 4077.197 3514.209 4077.234 3514.151 4077.25 3514.13 4077.294 3514.078 4077.309 3514.062 4077.359 3514.015 4077.376 3514 4077.431 3513.959 4077.45 3513.947 4077.51 3513.912 4077.531 3513.901 4077.594 3513.874 4077.618 3513.866 4077.684 3513.847 4077.703 3513.842 4077.77 3513.83 4077.794 3513.827 4077.863 3513.823 4077.866 3513.823 4077.995 3513.818 4078.11 3513.807 4078.219 3513.789 4078.33 3513.765 4078.442 3513.731 4078.561 3513.687 4078.561 3513.688 4078.661 3513.644 4078.761 3513.591 4078.872 3513.524 4078.967 3513.458 4079.05 3513.392 4079.143 3513.307 4079.225 3513.222 4079.295 3513.14 4079.362 3513.049 4079.433 3512.941 4079.489 3512.84 4079.54 3512.734 4079.58 3512.635 4079.619 3512.516 4079.647 3512.411 4079.671 3512.288 4079.685 3512.173 4079.692 3512.068 4079.692 3511.939 4079.685 3511.834 4079.671 3511.72 4079.646 3511.593 4079.619 3511.491 4079.579 3511.369 4079.539 3511.273 4079.489 3511.168 4079.426 3511.056 4079.362 3510.959 4079.292 3510.864 4079.225 3510.786 4079.143 3510.701 4079.058 3510.623 4078.957 3510.542 4078.872 3510.483 4078.765 3510.418 4078.658 3510.363 4078.553 3510.316 4078.453 3510.28 4078.332 3510.244 4078.228 3510.22 4078.101 3510.2 4077.991 3510.189 4077.868 3510.185 4077.863 3510.185 4077.794 3510.181 4077.77 3510.178 4077.703 3510.166 4077.681 3510.16 4077.615 3510.14 4077.594 3510.133 4077.531 3510.106 4077.512 3510.096 4077.452 3510.062 4077.431 3510.049 4077.376 3510.008 4077.359 3509.993 4077.309 3509.946 4077.293 3509.929 4077.249 3509.876 4077.235 3509.857 4077.198 3509.8 4077.187 3509.781 4077.156 3509.719 4077.148 3509.7 4077.124 3509.636 4077.116 3509.613 4077.1 3509.546 4077.096 3509.523 4077.088 3509.455 4077.087 3509.432 4077.087 3509.363 4077.088 3509.34 4077.096 3509.272 4077.1 3509.249 4077.116 3509.182 4077.124 3509.159 4077.148 3509.095 4077.156 3509.076 4077.187 3509.014 4077.198 3508.995 4077.235 3508.938 4077.249 3508.919 4077.293 3508.866 4077.309 3508.849 4077.359 3508.802 4077.376 3508.787 4077.431 3508.746 4077.452 3508.733 4077.512 3508.699 4077.531 3508.689 4077.594 3508.662 4077.615 3508.655 4077.681 3508.635 4077.703 3508.629 4077.77 3508.617 4077.794 3508.614 4077.863 3508.61 4077.879 3508.61 4078.041 3508.614 4078.051 3508.615 4078.212 3508.627 4078.222 3508.628 4078.383 3508.649 4078.392 3508.65 4078.551 3508.678 4078.562 3508.68 4078.72 3508.717 4078.73 3508.72 4078.886 3508.765 4078.894 3508.768 4079.047 3508.82 4079.057 3508.823 4079.208 3508.883 4079.218 3508.887 4079.365 3508.955 4079.373 3508.96 4079.516 3509.035 4079.525 3509.039 4079.665 3509.121 4079.673 3509.127 4079.808 3509.216 4079.816 3509.221 4079.947 3509.317 4079.955 3509.323 4080.08 3509.425 4080.088 3509.432 4080.208 3509.541 4080.215 3509.547 4080.33 3509.661 4080.337 3509.669 4080.446 3509.79 4080.453 3509.798 4080.555 3509.923 4080.561 3509.931 4080.657 3510.062 4080.662 3510.07 4080.751 3510.205 4080.757 3510.213 4080.839 3510.352 4080.844 3510.361 4080.919 3510.505 4080.923 3510.513 4080.991 3510.66 4080.995 3510.67 4081.055 3510.821 4081.058 3510.831 4081.11 3510.984 4081.113 3510.992 4081.158 3511.148 4081.161 3511.159 4081.197 3511.316 4081.199 3511.325 4081.228 3511.485 4081.229 3511.496 4081.25 3511.664 4081.263 3511.826 4081.264 3511.837 4081.268 3511.999 4081.268 3512.009 4081.264 3512.171 4081.263 3512.182 4081.25 3512.343 4081.249 3512.351 4081.229 3512.512 4081.228 3512.523 4081.199 3512.682 4081.197 3512.691 4081.161 3512.849 4081.158 3512.86 4081.113 3513.016 4081.11 3513.024 4081.058 3513.177 4081.055 3513.187 4080.995 3513.338 4080.991 3513.348 4080.923 3513.495 4080.918 3513.503 4080.843 3513.646 4080.839 3513.655 4080.757 3513.795 4080.751 3513.803 4080.662 3513.938 4080.657 3513.946 4080.561 3514.077 4080.555 3514.085 4080.453 3514.21 4080.446 3514.218 4080.337 3514.338 4080.208 3514.467 4080.088 3514.575 4080.081 3514.581 4079.956 3514.684 4079.947 3514.691 4079.816 3514.787 4079.808 3514.792 4079.673 3514.881 4079.665 3514.887 4079.525 3514.969 4079.516 3514.973 4079.373 3515.048 4079.365 3515.053 4079.218 3515.121 4079.208 3515.125 4079.057 3515.185 4079.047 3515.188 4078.894 3515.24 4078.886 3515.243 4078.73 3515.288 4078.719 3515.291 4078.561 3515.327 4078.552 3515.329 4078.393 3515.358 4078.382 3515.359 4078.221 3515.379 4078.213 3515.38 4078.052 3515.393 4078.041 3515.394 4077.879 3515.398" stroke-width="0" c_etype="pad_outer"/><polygon points="4077.869 3515.398 4077.707 3515.394 4077.696 3515.393 4077.535 3515.38 4077.527 3515.379 4077.366 3515.359 4077.355 3515.358 4077.195 3515.329 4077.186 3515.327 4077.029 3515.291 4077.018 3515.288 4076.862 3515.243 4076.854 3515.24 4076.701 3515.188 4076.691 3515.185 4076.54 3515.125 4076.53 3515.121 4076.383 3515.053 4076.375 3515.048 4076.232 3514.973 4076.223 3514.969 4076.083 3514.887 4076.075 3514.881 4075.94 3514.792 4075.932 3514.787 4075.801 3514.691 4075.792 3514.684 4075.667 3514.581 4075.661 3514.576 4075.54 3514.468 4075.531 3514.46 4075.417 3514.345 4075.411 3514.338 4075.302 3514.218 4075.295 3514.21 4075.193 3514.085 4075.187 3514.077 4075.091 3513.946 4075.086 3513.938 4074.997 3513.803 4074.991 3513.795 4074.909 3513.655 4074.905 3513.646 4074.83 3513.503 4074.825 3513.495 4074.757 3513.348 4074.753 3513.338 4074.693 3513.187 4074.69 3513.177 4074.638 3513.024 4074.635 3513.016 4074.59 3512.86 4074.587 3512.849 4074.551 3512.691 4074.549 3512.682 4074.52 3512.523 4074.519 3512.512 4074.499 3512.351 4074.498 3512.343 4074.485 3512.182 4074.484 3512.171 4074.48 3512.009 4074.48 3511.999 4074.484 3511.837 4074.485 3511.826 4074.498 3511.664 4074.519 3511.496 4074.52 3511.485 4074.549 3511.325 4074.551 3511.316 4074.587 3511.159 4074.59 3511.148 4074.635 3510.992 4074.638 3510.984 4074.69 3510.831 4074.693 3510.821 4074.753 3510.67 4074.757 3510.66 4074.825 3510.513 4074.829 3510.505 4074.904 3510.361 4074.909 3510.352 4074.991 3510.213 4074.997 3510.205 4075.086 3510.07 4075.091 3510.062 4075.187 3509.931 4075.193 3509.923 4075.295 3509.798 4075.302 3509.79 4075.411 3509.669 4075.539 3509.541 4075.66 3509.432 4075.668 3509.425 4075.793 3509.323 4075.801 3509.317 4075.932 3509.221 4075.94 3509.216 4076.075 3509.127 4076.083 3509.121 4076.223 3509.039 4076.232 3509.035 4076.375 3508.96 4076.383 3508.955 4076.53 3508.887 4076.54 3508.883 4076.691 3508.823 4076.701 3508.82 4076.854 3508.768 4076.862 3508.765 4077.018 3508.72 4077.028 3508.717 4077.185 3508.68 4077.196 3508.678 4077.356 3508.65 4077.365 3508.649 4077.526 3508.628 4077.536 3508.627 4077.697 3508.615 4077.707 3508.614 4077.869 3508.61 4077.885 3508.61 4077.954 3508.614 4077.978 3508.617 4078.045 3508.629 4078.067 3508.635 4078.133 3508.655 4078.154 3508.662 4078.217 3508.689 4078.237 3508.699 4078.296 3508.733 4078.314 3508.745 4078.37 3508.786 4078.389 3508.802 4078.439 3508.849 4078.455 3508.866 4078.499 3508.919 4078.513 3508.938 4078.55 3508.995 4078.561 3509.014 4078.592 3509.076 4078.6 3509.095 4078.624 3509.159 4078.632 3509.182 4078.648 3509.249 4078.652 3509.272 4078.66 3509.34 4078.661 3509.363 4078.661 3509.432 4078.66 3509.455 4078.652 3509.523 4078.648 3509.546 4078.632 3509.613 4078.624 3509.636 4078.6 3509.7 4078.592 3509.719 4078.561 3509.781 4078.55 3509.8 4078.513 3509.857 4078.499 3509.876 4078.455 3509.929 4078.439 3509.946 4078.389 3509.993 4078.37 3510.009 4078.314 3510.05 4078.296 3510.062 4078.237 3510.096 4078.217 3510.106 4078.154 3510.133 4078.133 3510.14 4078.067 3510.16 4078.045 3510.166 4077.978 3510.178 4077.954 3510.181 4077.885 3510.185 4077.88 3510.185 4077.757 3510.189 4077.647 3510.2 4077.52 3510.22 4077.416 3510.244 4077.295 3510.28 4077.195 3510.316 4077.09 3510.363 4076.983 3510.418 4076.876 3510.483 4076.791 3510.542 4076.69 3510.623 4076.605 3510.701 4076.523 3510.786 4076.456 3510.864 4076.386 3510.959 4076.322 3511.056 4076.259 3511.168 4076.209 3511.273 4076.169 3511.369 4076.129 3511.491 4076.102 3511.593 4076.077 3511.72 4076.063 3511.834 4076.056 3511.939 4076.056 3512.068 4076.063 3512.173 4076.077 3512.288 4076.101 3512.411 4076.129 3512.516 4076.168 3512.635 4076.208 3512.734 4076.259 3512.84 4076.315 3512.941 4076.386 3513.049 4076.453 3513.14 4076.523 3513.222 4076.605 3513.307 4076.698 3513.392 4076.781 3513.458 4076.876 3513.524 4076.987 3513.591 4077.087 3513.644 4077.187 3513.688 4077.187 3513.687 4077.306 3513.731 4077.418 3513.765 4077.529 3513.789 4077.638 3513.807 4077.753 3513.818 4077.882 3513.823 4077.885 3513.823 4077.954 3513.827 4077.978 3513.83 4078.045 3513.842 4078.064 3513.847 4078.13 3513.866 4078.154 3513.874 4078.217 3513.901 4078.239 3513.913 4078.298 3513.948 4078.314 3513.958 4078.37 3513.999 4078.389 3514.015 4078.439 3514.062 4078.454 3514.078 4078.498 3514.13 4078.514 3514.151 4078.551 3514.209 4078.561 3514.226 4078.592 3514.287 4078.601 3514.308 4078.625 3514.373 4078.632 3514.395 4078.648 3514.462 4078.652 3514.485 4078.66 3514.553 4078.661 3514.576 4078.661 3514.644 4078.66 3514.667 4078.652 3514.736 4078.648 3514.759 4078.632 3514.826 4078.624 3514.849 4078.6 3514.913 4078.592 3514.933 4078.561 3514.994 4078.551 3515.011 4078.514 3515.069 4078.498 3515.09 4078.454 3515.142 4078.44 3515.157 4078.39 3515.205 4078.37 3515.222 4078.314 3515.263 4078.296 3515.275 4078.237 3515.309 4078.217 3515.319 4078.154 3515.346 4078.133 3515.353 4078.067 3515.373 4078.045 3515.379 4077.978 3515.391 4077.954 3515.394 4077.885 3515.398" stroke-width="0" c_etype="pad_outer"/><ellipse cx="4054.53" cy="3445.909" rx="2.7590500000000002" ry="2.7590500000000002" stroke-width="0" c_etype="pad_outer"/><ellipse cx="4064.53" cy="3445.909" rx="2.7590500000000002" ry="2.7590500000000002" stroke-width="0" c_etype="pad_outer"/><ellipse cx="4074.53" cy="3445.909" rx="2.7590500000000002" ry="2.7590500000000002" stroke-width="0" c_etype="pad_outer"/><ellipse cx="4084.53" cy="3445.909" rx="2.7590500000000002" ry="2.7590500000000002" stroke-width="0" c_etype="pad_outer"/><ellipse cx="4094.53" cy="3445.909" rx="2.7590500000000002" ry="2.7590500000000002" stroke-width="0" c_etype="pad_outer"/><ellipse cx="4104.53" cy="3445.909" rx="2.7590500000000002" ry="2.7590500000000002" stroke-width="0" c_etype="pad_outer"/></g></mask><mask id="topSignalSolderMask" maskUnits="userSpaceOnUse" x="4020" y="3428" width="110.2" height="90.6"><path d="M4020 3518.551,4020 3459.4961,4043.6156 3459.496,4043.6212 3459.4958,4043.6218 3459.4958,4043.6219 3459.4946,4043.622 3459.4882,4043.622 3428,4130.236 3428,4130.236 3487.055,4106.622 3487.0549,4106.614 3487.0551,4106.6138 3487.0627,4106.6138 3518.551z" stroke="none" fill="white"/><g fill="black"><polygon points="4085.551 3506.153 4085.489 3506.143 4085.433 3506.115 4085.389 3506.071 4085.361 3506.015 4085.351 3505.953 4085.351 3502.803 4085.361 3502.741 4085.389 3502.685 4085.433 3502.641 4085.489 3502.613 4085.551 3502.603 4089.094 3502.603 4089.156 3502.613 4089.212 3502.641 4089.256 3502.685 4089.284 3502.741 4089.294 3502.803 4089.294 3505.953 4089.284 3506.015 4089.256 3506.071 4089.212 3506.115 4089.156 3506.143 4089.094 3506.153" stroke-width="0" c_etype="pad_outer"/><polygon points="4085.551 3511.664 4085.489 3511.654 4085.433 3511.626 4085.389 3511.582 4085.361 3511.526 4085.351 3511.464 4085.351 3508.315 4085.361 3508.253 4085.389 3508.197 4085.433 3508.153 4085.489 3508.125 4085.551 3508.115 4089.094 3508.115 4089.156 3508.125 4089.212 3508.153 4089.256 3508.197 4089.284 3508.253 4089.294 3508.315 4089.294 3511.464 4089.284 3511.526 4089.256 3511.582 4089.212 3511.626 4089.156 3511.654 4089.094 3511.664" stroke-width="0" c_etype="pad_outer"/><polygon points="4069.778 3497.224 4069.716 3497.214 4069.66 3497.186 4069.616 3497.142 4069.588 3497.086 4069.578 3497.024 4069.578 3493.622 4069.588 3493.56 4069.616 3493.504 4069.66 3493.46 4069.716 3493.432 4069.778 3493.422 4072.953 3493.422 4073.015 3493.432 4073.071 3493.46 4073.115 3493.504 4073.143 3493.56 4073.153 3493.622 4073.153 3497.024 4073.143 3497.086 4073.115 3497.142 4073.071 3497.186 4073.015 3497.214 4072.953 3497.224" stroke-width="0" c_etype="pad_outer"/><polygon points="4075.709 3497.224 4075.647 3497.214 4075.591 3497.186 4075.547 3497.142 4075.519 3497.086 4075.509 3497.024 4075.509 3493.622 4075.519 3493.56 4075.547 3493.504 4075.591 3493.46 4075.647 3493.432 4075.709 3493.422 4078.884 3493.422 4078.946 3493.432 4079.002 3493.46 4079.046 3493.504 4079.074 3493.56 4079.084 3493.622 4079.084 3497.024 4079.074 3497.086 4079.046 3497.142 4079.002 3497.186 4078.946 3497.214 4078.884 3497.224" stroke-width="0" c_etype="pad_outer"/><polygon points="4076.693 3505.063 4076.632 3505.053 4076.577 3505.025 4076.534 3504.982 4076.506 3504.927 4076.496 3504.866 4076.496 3502.811 4076.506 3502.75 4076.534 3502.695 4076.577 3502.652 4076.632 3502.624 4076.693 3502.614 4079.055 3502.614 4079.116 3502.624 4079.171 3502.652 4079.214 3502.695 4079.242 3502.75 4079.252 3502.811 4079.252 3504.866 4079.242 3504.927 4079.214 3504.982 4079.171 3505.025 4079.116 3505.053 4079.055 3505.063" stroke-width="0" c_etype="pad_outer"/><polygon points="4080.236 3505.063 4080.175 3505.053 4080.12 3505.025 4080.077 3504.982 4080.049 3504.927 4080.039 3504.866 4080.039 3502.811 4080.049 3502.75 4080.077 3502.695 4080.12 3502.652 4080.175 3502.624 4080.236 3502.614 4082.598 3502.614 4082.659 3502.624 4082.714 3502.652 4082.757 3502.695 4082.785 3502.75 4082.795 3502.811 4082.795 3504.866 4082.785 3504.927 4082.757 3504.982 4082.714 3505.025 4082.659 3505.053 4082.598 3505.063" stroke-width="0" c_etype="pad_outer"/><polygon points="4080.236 3508.299 4080.175 3508.289 4080.12 3508.261 4080.077 3508.218 4080.049 3508.163 4080.039 3508.102 4080.039 3506.047 4080.049 3505.986 4080.077 3505.931 4080.12 3505.888 4080.175 3505.86 4080.236 3505.85 4082.598 3505.85 4082.659 3505.86 4082.714 3505.888 4082.757 3505.931 4082.785 3505.986 4082.795 3506.047 4082.795 3508.102 4082.785 3508.163 4082.757 3508.218 4082.714 3508.261 4082.659 3508.289 4082.598 3508.299" stroke-width="0" c_etype="pad_outer"/><polygon points="4073.15 3508.299 4073.089 3508.289 4073.034 3508.261 4072.991 3508.218 4072.963 3508.163 4072.953 3508.102 4072.953 3506.047 4072.963 3505.986 4072.991 3505.931 4073.034 3505.888 4073.089 3505.86 4073.15 3505.85 4075.512 3505.85 4075.573 3505.86 4075.628 3505.888 4075.671 3505.931 4075.699 3505.986 4075.709 3506.047 4075.709 3508.102 4075.699 3508.163 4075.671 3508.218 4075.628 3508.261 4075.573 3508.289 4075.512 3508.299" stroke-width="0" c_etype="pad_outer"/><polygon points="4073.15 3505.063 4073.089 3505.053 4073.034 3505.025 4072.991 3504.982 4072.963 3504.927 4072.953 3504.866 4072.953 3502.811 4072.963 3502.75 4072.991 3502.695 4073.034 3502.652 4073.089 3502.624 4073.15 3502.614 4075.512 3502.614 4075.573 3502.624 4075.628 3502.652 4075.671 3502.695 4075.699 3502.75 4075.709 3502.811 4075.709 3504.866 4075.699 3504.927 4075.671 3504.982 4075.628 3505.025 4075.573 3505.053 4075.512 3505.063" stroke-width="0" c_etype="pad_outer"/><polygon points="4077.863 3515.398 4077.794 3515.394 4077.77 3515.391 4077.703 3515.379 4077.681 3515.373 4077.615 3515.353 4077.594 3515.346 4077.531 3515.319 4077.512 3515.309 4077.452 3515.275 4077.431 3515.262 4077.376 3515.221 4077.358 3515.205 4077.308 3515.157 4077.294 3515.142 4077.25 3515.09 4077.234 3515.069 4077.197 3515.011 4077.187 3514.994 4077.156 3514.933 4077.148 3514.913 4077.124 3514.849 4077.116 3514.826 4077.1 3514.759 4077.096 3514.736 4077.088 3514.667 4077.087 3514.644 4077.087 3514.576 4077.088 3514.553 4077.096 3514.485 4077.1 3514.462 4077.116 3514.395 4077.123 3514.373 4077.147 3514.308 4077.156 3514.287 4077.187 3514.226 4077.197 3514.209 4077.234 3514.151 4077.25 3514.13 4077.294 3514.078 4077.309 3514.062 4077.359 3514.015 4077.376 3514 4077.431 3513.959 4077.45 3513.947 4077.51 3513.912 4077.531 3513.901 4077.594 3513.874 4077.618 3513.866 4077.684 3513.847 4077.703 3513.842 4077.77 3513.83 4077.794 3513.827 4077.863 3513.823 4077.866 3513.823 4077.995 3513.818 4078.11 3513.807 4078.219 3513.789 4078.33 3513.765 4078.442 3513.731 4078.561 3513.687 4078.561 3513.688 4078.661 3513.644 4078.761 3513.591 4078.872 3513.524 4078.967 3513.458 4079.05 3513.392 4079.143 3513.307 4079.225 3513.222 4079.295 3513.14 4079.362 3513.049 4079.433 3512.941 4079.489 3512.84 4079.54 3512.734 4079.58 3512.635 4079.619 3512.516 4079.647 3512.411 4079.671 3512.288 4079.685 3512.173 4079.692 3512.068 4079.692 3511.939 4079.685 3511.834 4079.671 3511.72 4079.646 3511.593 4079.619 3511.491 4079.579 3511.369 4079.539 3511.273 4079.489 3511.168 4079.426 3511.056 4079.362 3510.959 4079.292 3510.864 4079.225 3510.786 4079.143 3510.701 4079.058 3510.623 4078.957 3510.542 4078.872 3510.483 4078.765 3510.418 4078.658 3510.363 4078.553 3510.316 4078.453 3510.28 4078.332 3510.244 4078.228 3510.22 4078.101 3510.2 4077.991 3510.189 4077.868 3510.185 4077.863 3510.185 4077.794 3510.181 4077.77 3510.178 4077.703 3510.166 4077.681 3510.16 4077.615 3510.14 4077.594 3510.133 4077.531 3510.106 4077.512 3510.096 4077.452 3510.062 4077.431 3510.049 4077.376 3510.008 4077.359 3509.993 4077.309 3509.946 4077.293 3509.929 4077.249 3509.876 4077.235 3509.857 4077.198 3509.8 4077.187 3509.781 4077.156 3509.719 4077.148 3509.7 4077.124 3509.636 4077.116 3509.613 4077.1 3509.546 4077.096 3509.523 4077.088 3509.455 4077.087 3509.432 4077.087 3509.363 4077.088 3509.34 4077.096 3509.272 4077.1 3509.249 4077.116 3509.182 4077.124 3509.159 4077.148 3509.095 4077.156 3509.076 4077.187 3509.014 4077.198 3508.995 4077.235 3508.938 4077.249 3508.919 4077.293 3508.866 4077.309 3508.849 4077.359 3508.802 4077.376 3508.787 4077.431 3508.746 4077.452 3508.733 4077.512 3508.699 4077.531 3508.689 4077.594 3508.662 4077.615 3508.655 4077.681 3508.635 4077.703 3508.629 4077.77 3508.617 4077.794 3508.614 4077.863 3508.61 4077.879 3508.61 4078.041 3508.614 4078.051 3508.615 4078.212 3508.627 4078.222 3508.628 4078.383 3508.649 4078.392 3508.65 4078.551 3508.678 4078.562 3508.68 4078.72 3508.717 4078.73 3508.72 4078.886 3508.765 4078.894 3508.768 4079.047 3508.82 4079.057 3508.823 4079.208 3508.883 4079.218 3508.887 4079.365 3508.955 4079.373 3508.96 4079.516 3509.035 4079.525 3509.039 4079.665 3509.121 4079.673 3509.127 4079.808 3509.216 4079.816 3509.221 4079.947 3509.317 4079.955 3509.323 4080.08 3509.425 4080.088 3509.432 4080.208 3509.541 4080.215 3509.547 4080.33 3509.661 4080.337 3509.669 4080.446 3509.79 4080.453 3509.798 4080.555 3509.923 4080.561 3509.931 4080.657 3510.062 4080.662 3510.07 4080.751 3510.205 4080.757 3510.213 4080.839 3510.352 4080.844 3510.361 4080.919 3510.505 4080.923 3510.513 4080.991 3510.66 4080.995 3510.67 4081.055 3510.821 4081.058 3510.831 4081.11 3510.984 4081.113 3510.992 4081.158 3511.148 4081.161 3511.159 4081.197 3511.316 4081.199 3511.325 4081.228 3511.485 4081.229 3511.496 4081.25 3511.664 4081.263 3511.826 4081.264 3511.837 4081.268 3511.999 4081.268 3512.009 4081.264 3512.171 4081.263 3512.182 4081.25 3512.343 4081.249 3512.351 4081.229 3512.512 4081.228 3512.523 4081.199 3512.682 4081.197 3512.691 4081.161 3512.849 4081.158 3512.86 4081.113 3513.016 4081.11 3513.024 4081.058 3513.177 4081.055 3513.187 4080.995 3513.338 4080.991 3513.348 4080.923 3513.495 4080.918 3513.503 4080.843 3513.646 4080.839 3513.655 4080.757 3513.795 4080.751 3513.803 4080.662 3513.938 4080.657 3513.946 4080.561 3514.077 4080.555 3514.085 4080.453 3514.21 4080.446 3514.218 4080.337 3514.338 4080.208 3514.467 4080.088 3514.575 4080.081 3514.581 4079.956 3514.684 4079.947 3514.691 4079.816 3514.787 4079.808 3514.792 4079.673 3514.881 4079.665 3514.887 4079.525 3514.969 4079.516 3514.973 4079.373 3515.048 4079.365 3515.053 4079.218 3515.121 4079.208 3515.125 4079.057 3515.185 4079.047 3515.188 4078.894 3515.24 4078.886 3515.243 4078.73 3515.288 4078.719 3515.291 4078.561 3515.327 4078.552 3515.329 4078.393 3515.358 4078.382 3515.359 4078.221 3515.379 4078.213 3515.38 4078.052 3515.393 4078.041 3515.394 4077.879 3515.398" stroke-width="0" c_etype="pad_outer"/><polygon points="4077.869 3515.398 4077.707 3515.394 4077.696 3515.393 4077.535 3515.38 4077.527 3515.379 4077.366 3515.359 4077.355 3515.358 4077.195 3515.329 4077.186 3515.327 4077.029 3515.291 4077.018 3515.288 4076.862 3515.243 4076.854 3515.24 4076.701 3515.188 4076.691 3515.185 4076.54 3515.125 4076.53 3515.121 4076.383 3515.053 4076.375 3515.048 4076.232 3514.973 4076.223 3514.969 4076.083 3514.887 4076.075 3514.881 4075.94 3514.792 4075.932 3514.787 4075.801 3514.691 4075.792 3514.684 4075.667 3514.581 4075.661 3514.576 4075.54 3514.468 4075.531 3514.46 4075.417 3514.345 4075.411 3514.338 4075.302 3514.218 4075.295 3514.21 4075.193 3514.085 4075.187 3514.077 4075.091 3513.946 4075.086 3513.938 4074.997 3513.803 4074.991 3513.795 4074.909 3513.655 4074.905 3513.646 4074.83 3513.503 4074.825 3513.495 4074.757 3513.348 4074.753 3513.338 4074.693 3513.187 4074.69 3513.177 4074.638 3513.024 4074.635 3513.016 4074.59 3512.86 4074.587 3512.849 4074.551 3512.691 4074.549 3512.682 4074.52 3512.523 4074.519 3512.512 4074.499 3512.351 4074.498 3512.343 4074.485 3512.182 4074.484 3512.171 4074.48 3512.009 4074.48 3511.999 4074.484 3511.837 4074.485 3511.826 4074.498 3511.664 4074.519 3511.496 4074.52 3511.485 4074.549 3511.325 4074.551 3511.316 4074.587 3511.159 4074.59 3511.148 4074.635 3510.992 4074.638 3510.984 4074.69 3510.831 4074.693 3510.821 4074.753 3510.67 4074.757 3510.66 4074.825 3510.513 4074.829 3510.505 4074.904 3510.361 4074.909 3510.352 4074.991 3510.213 4074.997 3510.205 4075.086 3510.07 4075.091 3510.062 4075.187 3509.931 4075.193 3509.923 4075.295 3509.798 4075.302 3509.79 4075.411 3509.669 4075.539 3509.541 4075.66 3509.432 4075.668 3509.425 4075.793 3509.323 4075.801 3509.317 4075.932 3509.221 4075.94 3509.216 4076.075 3509.127 4076.083 3509.121 4076.223 3509.039 4076.232 3509.035 4076.375 3508.96 4076.383 3508.955 4076.53 3508.887 4076.54 3508.883 4076.691 3508.823 4076.701 3508.82 4076.854 3508.768 4076.862 3508.765 4077.018 3508.72 4077.028 3508.717 4077.185 3508.68 4077.196 3508.678 4077.356 3508.65 4077.365 3508.649 4077.526 3508.628 4077.536 3508.627 4077.697 3508.615 4077.707 3508.614 4077.869 3508.61 4077.885 3508.61 4077.954 3508.614 4077.978 3508.617 4078.045 3508.629 4078.067 3508.635 4078.133 3508.655 4078.154 3508.662 4078.217 3508.689 4078.237 3508.699 4078.296 3508.733 4078.314 3508.745 4078.37 3508.786 4078.389 3508.802 4078.439 3508.849 4078.455 3508.866 4078.499 3508.919 4078.513 3508.938 4078.55 3508.995 4078.561 3509.014 4078.592 3509.076 4078.6 3509.095 4078.624 3509.159 4078.632 3509.182 4078.648 3509.249 4078.652 3509.272 4078.66 3509.34 4078.661 3509.363 4078.661 3509.432 4078.66 3509.455 4078.652 3509.523 4078.648 3509.546 4078.632 3509.613 4078.624 3509.636 4078.6 3509.7 4078.592 3509.719 4078.561 3509.781 4078.55 3509.8 4078.513 3509.857 4078.499 3509.876 4078.455 3509.929 4078.439 3509.946 4078.389 3509.993 4078.37 3510.009 4078.314 3510.05 4078.296 3510.062 4078.237 3510.096 4078.217 3510.106 4078.154 3510.133 4078.133 3510.14 4078.067 3510.16 4078.045 3510.166 4077.978 3510.178 4077.954 3510.181 4077.885 3510.185 4077.88 3510.185 4077.757 3510.189 4077.647 3510.2 4077.52 3510.22 4077.416 3510.244 4077.295 3510.28 4077.195 3510.316 4077.09 3510.363 4076.983 3510.418 4076.876 3510.483 4076.791 3510.542 4076.69 3510.623 4076.605 3510.701 4076.523 3510.786 4076.456 3510.864 4076.386 3510.959 4076.322 3511.056 4076.259 3511.168 4076.209 3511.273 4076.169 3511.369 4076.129 3511.491 4076.102 3511.593 4076.077 3511.72 4076.063 3511.834 4076.056 3511.939 4076.056 3512.068 4076.063 3512.173 4076.077 3512.288 4076.101 3512.411 4076.129 3512.516 4076.168 3512.635 4076.208 3512.734 4076.259 3512.84 4076.315 3512.941 4076.386 3513.049 4076.453 3513.14 4076.523 3513.222 4076.605 3513.307 4076.698 3513.392 4076.781 3513.458 4076.876 3513.524 4076.987 3513.591 4077.087 3513.644 4077.187 3513.688 4077.187 3513.687 4077.306 3513.731 4077.418 3513.765 4077.529 3513.789 4077.638 3513.807 4077.753 3513.818 4077.882 3513.823 4077.885 3513.823 4077.954 3513.827 4077.978 3513.83 4078.045 3513.842 4078.064 3513.847 4078.13 3513.866 4078.154 3513.874 4078.217 3513.901 4078.239 3513.913 4078.298 3513.948 4078.314 3513.958 4078.37 3513.999 4078.389 3514.015 4078.439 3514.062 4078.454 3514.078 4078.498 3514.13 4078.514 3514.151 4078.551 3514.209 4078.561 3514.226 4078.592 3514.287 4078.601 3514.308 4078.625 3514.373 4078.632 3514.395 4078.648 3514.462 4078.652 3514.485 4078.66 3514.553 4078.661 3514.576 4078.661 3514.644 4078.66 3514.667 4078.652 3514.736 4078.648 3514.759 4078.632 3514.826 4078.624 3514.849 4078.6 3514.913 4078.592 3514.933 4078.561 3514.994 4078.551 3515.011 4078.514 3515.069 4078.498 3515.09 4078.454 3515.142 4078.44 3515.157 4078.39 3515.205 4078.37 3515.222 4078.314 3515.263 4078.296 3515.275 4078.237 3515.309 4078.217 3515.319 4078.154 3515.346 4078.133 3515.353 4078.067 3515.373 4078.045 3515.379 4077.978 3515.391 4077.954 3515.394 4077.885 3515.398" stroke-width="0" c_etype="pad_outer"/><ellipse cx="4054.53" cy="3445.909" rx="2.7590500000000002" ry="2.7590500000000002" stroke-width="0" c_etype="pad_outer"/><ellipse cx="4064.53" cy="3445.909" rx="2.7590500000000002" ry="2.7590500000000002" stroke-width="0" c_etype="pad_outer"/><ellipse cx="4074.53" cy="3445.909" rx="2.7590500000000002" ry="2.7590500000000002" stroke-width="0" c_etype="pad_outer"/><ellipse cx="4084.53" cy="3445.909" rx="2.7590500000000002" ry="2.7590500000000002" stroke-width="0" c_etype="pad_outer"/><ellipse cx="4094.53" cy="3445.909" rx="2.7590500000000002" ry="2.7590500000000002" stroke-width="0" c_etype="pad_outer"/><ellipse cx="4104.53" cy="3445.909" rx="2.7590500000000002" ry="2.7590500000000002" stroke-width="0" c_etype="pad_outer"/></g></mask><mask id="bottomBoardSolderMask" maskUnits="userSpaceOnUse" x="4020" y="3428" width="110.2" height="90.6"><path d="M4020 3518.551,4020 3459.4961,4043.6156 3459.496,4043.6212 3459.4958,4043.6218 3459.4958,4043.6219 3459.4946,4043.622 3459.4882,4043.622 3428,4130.236 3428,4130.236 3487.055,4106.622 3487.0549,4106.614 3487.0551,4106.6138 3487.0627,4106.6138 3518.551z" stroke="none" fill="white"/><g fill="black"><ellipse cx="4054.53" cy="3445.909" rx="2.7590500000000002" ry="2.7590500000000002" stroke-width="0" c_etype="pad_outer"/><ellipse cx="4064.53" cy="3445.909" rx="2.7590500000000002" ry="2.7590500000000002" stroke-width="0" c_etype="pad_outer"/><ellipse cx="4074.53" cy="3445.909" rx="2.7590500000000002" ry="2.7590500000000002" stroke-width="0" c_etype="pad_outer"/><ellipse cx="4084.53" cy="3445.909" rx="2.7590500000000002" ry="2.7590500000000002" stroke-width="0" c_etype="pad_outer"/><ellipse cx="4094.53" cy="3445.909" rx="2.7590500000000002" ry="2.7590500000000002" stroke-width="0" c_etype="pad_outer"/><ellipse cx="4104.53" cy="3445.909" rx="2.7590500000000002" ry="2.7590500000000002" stroke-width="0" c_etype="pad_outer"/></g></mask><mask id="bottomSignalSolderMask" maskUnits="userSpaceOnUse" x="4020" y="3428" width="110.2" height="90.6"><path d="M4020 3518.551,4020 3459.4961,4043.6156 3459.496,4043.6212 3459.4958,4043.6218 3459.4958,4043.6219 3459.4946,4043.622 3459.4882,4043.622 3428,4130.236 3428,4130.236 3487.055,4106.622 3487.0549,4106.614 3487.0551,4106.6138 3487.0627,4106.6138 3518.551z" stroke="none" fill="white"/><g fill="black"><ellipse cx="4054.53" cy="3445.909" rx="2.7590500000000002" ry="2.7590500000000002" stroke-width="0" c_etype="pad_outer"/><ellipse cx="4064.53" cy="3445.909" rx="2.7590500000000002" ry="2.7590500000000002" stroke-width="0" c_etype="pad_outer"/><ellipse cx="4074.53" cy="3445.909" rx="2.7590500000000002" ry="2.7590500000000002" stroke-width="0" c_etype="pad_outer"/><ellipse cx="4084.53" cy="3445.909" rx="2.7590500000000002" ry="2.7590500000000002" stroke-width="0" c_etype="pad_outer"/><ellipse cx="4094.53" cy="3445.909" rx="2.7590500000000002" ry="2.7590500000000002" stroke-width="0" c_etype="pad_outer"/><ellipse cx="4104.53" cy="3445.909" rx="2.7590500000000002" ry="2.7590500000000002" stroke-width="0" c_etype="pad_outer"/></g></mask></defs><g xmlns="http://www.w3.org/2000/svg" id="g1" mask="url(#multiLayerMask)" class="photoview" transform="matrix(-1, 0, 0, 1, 8150.23583984375, 0)"><g id="layer_other" class="shapeBox"><path d="M4020 3518.551,4020 3459.4961,4043.6156 3459.496,4043.6212 3459.4958,4043.6218 3459.4958,4043.6219 3459.4946,4043.622 3459.4882,4043.622 3428,4130.236 3428,4130.236 3487.055,4106.622 3487.0549,4106.614 3487.0551,4106.6138 3487.0627,4106.6138 3518.551z" stroke="none" id="boardOutlineReal" fill="#80785F"/><path d="M4020 3518.551,4020 3459.4961,4043.6156 3459.496,4043.6212 3459.4958,4043.6218 3459.4958,4043.6219 3459.4946,4043.622 3459.4882,4043.622 3428,4130.236 3428,4130.236 3487.055,4106.622 3487.0549,4106.614 3487.0551,4106.6138 3487.0627,4106.6138 3518.551z" stroke="none" id="topBoardSolderReal" mask="url(#topBoardSolderMask)" fill="#002966" display="none"/><g id="topSignalReal" fill="#DCAA14" stroke="#DCAA14" display="none"><polyline points="4074.53 3445.91 4074.33 3445.91 4074.33 3503.84" stroke-width="1" c_shapetype="line" stroke-linecap="round" fill="none" layerid="1" net="" id="gge1152_1" locked="0"/><polyline points="4077.2961 3495.3223 4077.8743 3495.9005 4077.8743 3503.8386" stroke-width="1" c_shapetype="line" stroke-linecap="round" fill="none" layerid="1" net="" id="gge1155_1" locked="0"/><polyline points="4074.33 3507.07 4074.33 3511.07 4075.27 3512" stroke-width="1" c_shapetype="line" stroke-linecap="round" fill="none" layerid="1" net="" id="gge1161_1" locked="0"/><polyline points="4080.48 3512 4085.21 3512 4087.32 3509.89" stroke-width="1" c_shapetype="line" stroke-linecap="round" fill="none" layerid="1" net="" id="gge1164_1" locked="0"/><polyline points="4087.3223 3504.3782 4086.7827 3503.8386 4081.4173 3503.8386" stroke-width="1" c_shapetype="line" stroke-linecap="round" fill="none" layerid="1" net="" id="gge1158_1" locked="0"/><polyline points="4104.53 3445.91 4104.53 3452.53 4102.28 3454.77 4102.28 3500.83 4093.23 3509.89 4087.32 3509.89" stroke-width="1" c_shapetype="line" stroke-linecap="round" fill="none" layerid="1" net="" id="gge1044_1" locked="0"/><polyline points="4087.32 3504.38 4089.68 3504.38 4094.53 3499.53 4094.53 3445.91" stroke-width="1" c_shapetype="line" stroke-linecap="round" fill="none" layerid="1" net="" id="gge1104_1" locked="0"/><polyline points="4064.53 3445.91 4064.53 3442.92 4068.03 3439.42 4095.2 3439.42 4098.74 3442.96 4098.74 3499.65 4091.32 3507.07 4081.42 3507.07" stroke-width="1" c_shapetype="line" stroke-linecap="round" fill="none" layerid="1" net="" id="gge1089_1" locked="0"/><polyline points="4071.36 3495.32 4071.36 3462.75 4054.53 3445.91" stroke-width="1" c_shapetype="line" stroke-linecap="round" fill="none" layerid="1" net="" id="gge1083_1" locked="0"/><g c_partid="part_pad" c_etype="pinpart" layerid="1" id="gge69_1" c_origin="4087.323,3504.378" net="" c_rotation="90" c_width="3.1496" c_height="3.5433"><polygon points="4085.551 3505.9526 4085.551 3502.803 4089.0944 3502.803 4089.0944 3505.9526" stroke-width="0"/></g><g c_partid="part_pad" c_etype="pinpart" layerid="1" id="gge84_1" c_origin="4087.323,3509.89" net="" c_rotation="90" c_width="3.1496" c_height="3.5433"><polygon points="4085.551 3511.4644 4085.551 3508.3148 4089.0944 3508.3148 4089.0944 3511.4644" stroke-width="0"/></g><g c_partid="part_pad" c_etype="pinpart" layerid="1" id="gge261_1" c_origin="4071.365,3495.323" net="" c_rotation="180" c_width="3.1751" c_height="3.4016"><polygon points="4072.9526 3493.6219 4072.9526 3497.0235 4069.7775 3497.0235 4069.7775 3493.6219" stroke-width="0"/></g><g c_partid="part_pad" c_etype="pinpart" layerid="1" id="gge273_1" c_origin="4077.296,3495.323" net="" c_rotation="180" c_width="3.1751" c_height="3.4016"><polygon points="4075.7086 3493.6219 4075.7086 3497.0235 4078.8837 3497.0235 4078.8837 3493.6219" stroke-width="0"/></g><g c_partid="part_pad" c_etype="pinpart" layerid="1" id="gge381_1" c_origin="4077.874,3503.838" net="" c_rotation="0" c_width="2.3622" c_height="2.0551"><polygon points="4076.6928 3502.8109 4079.055 3502.8109 4079.055 3504.866 4076.6928 3504.866" stroke-width="0"/></g><g c_partid="part_pad" c_etype="pinpart" layerid="1" id="gge393_1" c_origin="4081.417,3503.838" net="" c_rotation="0" c_width="2.3622" c_height="2.0551"><polygon points="4080.2361 3502.8109 4082.5983 3502.8109 4082.5983 3504.866 4080.2361 3504.866" stroke-width="0"/></g><g c_partid="part_pad" c_etype="pinpart" layerid="1" id="gge405_1" c_origin="4081.417,3507.075" net="" c_rotation="0" c_width="2.3622" c_height="2.0551"><polygon points="4080.2361 3506.0471 4082.5983 3506.0471 4082.5983 3508.1023 4080.2361 3508.1023" stroke-width="0"/></g><g c_partid="part_pad" c_etype="pinpart" layerid="1" id="gge417_1" c_origin="4074.331,3507.075" net="" c_rotation="0" c_width="2.3622" c_height="2.0551"><polygon points="4073.1495 3506.0471 4075.5117 3506.0471 4075.5117 3508.1023 4073.1495 3508.1023" stroke-width="0"/></g><g c_partid="part_pad" c_etype="pinpart" layerid="1" id="gge429_1" c_origin="4074.331,3503.838" net="" c_rotation="0" c_width="2.3622" c_height="2.0551"><polygon points="4073.1495 3502.8109 4075.5117 3502.8109 4075.5117 3504.866 4073.1495 3504.866" stroke-width="0"/></g><g c_partid="part_pad" c_etype="pinpart" layerid="1" id="gge441_1" c_origin="4080.48,3512.005" net="" c_rotation="0" c_width="2.6062" c_height="5.2126"><polygon points="4077.8739 3514.0195 4078.003 3514.0154 4078.1317 3514.003 4078.2592 3513.9824 4078.3852 3513.9536 4078.5091 3513.9169 4078.6303 3513.8722 4078.7485 3513.8199 4078.8631 3513.7602 4078.9736 3513.6932 4079.0795 3513.6192 4079.1806 3513.5387 4079.2762 3513.4518 4079.3661 3513.359 4079.4499 3513.2606 4079.5272 3513.157 4079.5977 3513.0487 4079.6611 3512.9362 4079.7171 3512.8197 4079.7656 3512.7 4079.8063 3512.5773 4079.8391 3512.4523 4079.8638 3512.3255 4079.8803 3512.1974 4079.8886 3512.0684 4079.8886 3511.9392 4079.8803 3511.8102 4079.8638 3511.6821 4079.8391 3511.5553 4079.8063 3511.4303 4079.7656 3511.3076 4079.7171 3511.1879 4079.6611 3511.0714 4079.5977 3510.9589 4079.5272 3510.8506 4079.4499 3510.747 4079.3661 3510.6486 4079.2762 3510.5558 4079.1806 3510.4689 4079.0795 3510.3884 4078.9736 3510.3144 4078.8631 3510.2474 4078.7485 3510.1877 4078.6303 3510.1354 4078.5091 3510.0907 4078.3852 3510.054 4078.2592 3510.0252 4078.1317 3510.0046 4078.003 3509.9922 4077.8739 3509.9881 4077.8053 3509.9841 4077.7377 3509.9721 4077.6719 3509.9524 4077.6089 3509.9252 4077.5494 3509.8909 4077.4943 3509.8499 4077.4443 3509.8028 4077.4002 3509.7502 4077.3625 3509.6928 4077.3316 3509.6314 4077.3082 3509.5669 4077.2923 3509.5 4077.2843 3509.4318 4077.2843 3509.3632 4077.2923 3509.295 4077.3082 3509.2281 4077.3316 3509.1636 4077.3625 3509.1022 4077.4002 3509.0448 4077.4443 3508.9922 4077.4943 3508.9451 4077.5494 3508.9041 4077.6089 3508.8698 4077.6719 3508.8426 4077.7377 3508.8229 4077.8053 3508.8109 4077.8739 3508.8069 4078.0358 3508.8111 4078.1973 3508.8234 4078.358 3508.8438 4078.5174 3508.8724 4078.6752 3508.909 4078.8309 3508.9536 4078.9842 3509.0059 4079.1346 3509.066 4079.2818 3509.1337 4079.4253 3509.2086 4079.5649 3509.2908 4079.7002 3509.3799 4079.8307 3509.4758 4079.9562 3509.5782 4080.0764 3509.6867 4080.191 3509.8013 4080.2995 3509.9215 4080.4019 3510.047 4080.4978 3510.1775 4080.5869 3510.3128 4080.6691 3510.4524 4080.744 3510.5959 4080.8117 3510.7431 4080.8718 3510.8935 4080.9241 3511.0468 4080.9687 3511.2025 4081.0053 3511.3603 4081.0339 3511.5197 4081.0543 3511.6804 4081.0666 3511.8419 4081.0708 3512.0038 4081.0666 3512.1657 4081.0543 3512.3272 4081.0339 3512.4879 4081.0053 3512.6473 4080.9687 3512.8051 4080.9241 3512.9608 4080.8718 3513.1141 4080.8117 3513.2645 4080.744 3513.4117 4080.6691 3513.5552 4080.5869 3513.6948 4080.4978 3513.8301 4080.4019 3513.9606 4080.2995 3514.0861 4080.191 3514.2063 4080.0764 3514.3209 4079.9562 3514.4294 4079.8307 3514.5318 4079.7002 3514.6277 4079.5649 3514.7168 4079.4253 3514.799 4079.2818 3514.8739 4079.1346 3514.9416 4078.9842 3515.0017 4078.8309 3515.054 4078.6752 3515.0986 4078.5174 3515.1352 4078.358 3515.1638 4078.1973 3515.1842 4078.0358 3515.1965 4077.8739 3515.2007 4077.8053 3515.1967 4077.7377 3515.1847 4077.6719 3515.165 4077.6089 3515.1378 4077.5494 3515.1035 4077.4943 3515.0625 4077.4443 3515.0154 4077.4002 3514.9628 4077.3625 3514.9054 4077.3316 3514.844 4077.3082 3514.7795 4077.2923 3514.7126 4077.2843 3514.6444 4077.2843 3514.5758 4077.2923 3514.5076 4077.3082 3514.4407 4077.3316 3514.3762 4077.3625 3514.3148 4077.4002 3514.2574 4077.4443 3514.2048 4077.4943 3514.1577 4077.5494 3514.1167 4077.6089 3514.0824 4077.6719 3514.0552 4077.7377 3514.0355 4077.8053 3514.0235 4077.8739 3514.0195" stroke-width="0"/></g><g c_partid="part_pad" c_etype="pinpart" layerid="1" id="gge453_1" c_origin="4075.268,3512.005" net="" c_rotation="0" c_width="2.6064" c_height="5.2126"><polygon points="4077.8739 3509.9881 4077.7448 3509.9922 4077.6161 3510.0046 4077.4886 3510.0252 4077.3626 3510.054 4077.2387 3510.0907 4077.1175 3510.1354 4076.9993 3510.1877 4076.8847 3510.2474 4076.7742 3510.3144 4076.6683 3510.3884 4076.5672 3510.4689 4076.4716 3510.5558 4076.3817 3510.6486 4076.2979 3510.747 4076.2206 3510.8506 4076.1501 3510.9589 4076.0867 3511.0714 4076.0307 3511.1879 4075.9822 3511.3076 4075.9415 3511.4303 4075.9087 3511.5553 4075.884 3511.6821 4075.8675 3511.8102 4075.8592 3511.9392 4075.8592 3512.0684 4075.8675 3512.1974 4075.884 3512.3255 4075.9087 3512.4523 4075.9415 3512.5773 4075.9822 3512.7 4076.0307 3512.8197 4076.0867 3512.9362 4076.1501 3513.0487 4076.2206 3513.157 4076.2979 3513.2606 4076.3817 3513.359 4076.4716 3513.4518 4076.5672 3513.5387 4076.6683 3513.6192 4076.7742 3513.6932 4076.8847 3513.7602 4076.9993 3513.8199 4077.1175 3513.8722 4077.2387 3513.9169 4077.3626 3513.9536 4077.4886 3513.9824 4077.6161 3514.003 4077.7448 3514.0154 4077.8739 3514.0195 4077.9425 3514.0235 4078.0101 3514.0355 4078.0759 3514.0552 4078.1389 3514.0824 4078.1984 3514.1167 4078.2535 3514.1577 4078.3035 3514.2048 4078.3476 3514.2574 4078.3853 3514.3148 4078.4162 3514.3762 4078.4396 3514.4407 4078.4555 3514.5076 4078.4635 3514.5758 4078.4635 3514.6444 4078.4555 3514.7126 4078.4396 3514.7795 4078.4162 3514.844 4078.3853 3514.9054 4078.3476 3514.9628 4078.3035 3515.0154 4078.2535 3515.0625 4078.1984 3515.1035 4078.1389 3515.1378 4078.0759 3515.165 4078.0101 3515.1847 4077.9425 3515.1967 4077.8739 3515.2007 4077.712 3515.1965 4077.5505 3515.1842 4077.3898 3515.1638 4077.2304 3515.1352 4077.0726 3515.0986 4076.9169 3515.054 4076.7636 3515.0017 4076.6132 3514.9416 4076.466 3514.8739 4076.3225 3514.799 4076.1829 3514.7168 4076.0476 3514.6277 4075.9171 3514.5318 4075.7916 3514.4294 4075.6714 3514.3209 4075.5568 3514.2063 4075.4483 3514.0861 4075.3459 3513.9606 4075.25 3513.8301 4075.1609 3513.6948 4075.0787 3513.5552 4075.0038 3513.4117 4074.9361 3513.2645 4074.876 3513.1141 4074.8237 3512.9608 4074.7791 3512.8051 4074.7425 3512.6473 4074.7139 3512.4879 4074.6935 3512.3272 4074.6812 3512.1657 4074.677 3512.0038 4074.6812 3511.8419 4074.6935 3511.6804 4074.7139 3511.5197 4074.7425 3511.3603 4074.7791 3511.2025 4074.8237 3511.0468 4074.876 3510.8935 4074.9361 3510.7431 4075.0038 3510.5959 4075.0787 3510.4524 4075.1609 3510.3128 4075.25 3510.1775 4075.3459 3510.047 4075.4483 3509.9215 4075.5568 3509.8013 4075.6714 3509.6867 4075.7916 3509.5782 4075.9171 3509.4758 4076.0476 3509.3799 4076.1829 3509.2908 4076.3225 3509.2086 4076.466 3509.1337 4076.6132 3509.066 4076.7636 3509.0059 4076.9169 3508.9536 4077.0726 3508.909 4077.2304 3508.8724 4077.3898 3508.8438 4077.5505 3508.8234 4077.712 3508.8111 4077.8739 3508.8069 4077.9425 3508.8109 4078.0101 3508.8229 4078.0759 3508.8426 4078.1389 3508.8698 4078.1984 3508.9041 4078.2535 3508.9451 4078.3035 3508.9922 4078.3476 3509.0448 4078.3853 3509.1022 4078.4162 3509.1636 4078.4396 3509.2281 4078.4555 3509.295 4078.4635 3509.3632 4078.4635 3509.4318 4078.4555 3509.5 4078.4396 3509.5669 4078.4162 3509.6314 4078.3853 3509.6928 4078.3476 3509.7502 4078.3035 3509.8028 4078.2535 3509.8499 4078.1984 3509.8909 4078.1389 3509.9252 4078.0759 3509.9524 4078.0101 3509.9721 4077.9425 3509.9841 4077.8739 3509.9881" stroke-width="0"/></g><g c_partid="part_pad" c_etype="pinpart" layerid="11" id="gge1213_11" c_origin="4054.53,3445.909" net="" c_rotation="0" c_width="5.1181" c_height="5.1181"><ellipse cx="4054.53" cy="3445.909" rx="2.55905" ry="2.55905" stroke-width="0" c_etype="pad_shell"/></g><g c_partid="part_pad" c_etype="pinpart" layerid="11" id="gge1228_11" c_origin="4064.53,3445.909" net="" c_rotation="0" c_width="5.1181" c_height="5.1181"><ellipse cx="4064.53" cy="3445.909" rx="2.55905" ry="2.55905" stroke-width="0" c_etype="pad_shell"/></g><g c_partid="part_pad" c_etype="pinpart" layerid="11" id="gge1243_11" c_origin="4074.53,3445.909" net="" c_rotation="0" c_width="5.1181" c_height="5.1181"><ellipse cx="4074.53" cy="3445.909" rx="2.55905" ry="2.55905" stroke-width="0" c_etype="pad_shell"/></g><g c_partid="part_pad" c_etype="pinpart" layerid="11" id="gge1258_11" c_origin="4084.53,3445.909" net="" c_rotation="0" c_width="5.1181" c_height="5.1181"><ellipse cx="4084.53" cy="3445.909" rx="2.55905" ry="2.55905" stroke-width="0" c_etype="pad_shell"/></g><g c_partid="part_pad" c_etype="pinpart" layerid="11" id="gge1273_11" c_origin="4094.53,3445.909" net="" c_rotation="0" c_width="5.1181" c_height="5.1181"><ellipse cx="4094.53" cy="3445.909" rx="2.55905" ry="2.55905" stroke-width="0" c_etype="pad_shell"/></g><g c_partid="part_pad" c_etype="pinpart" layerid="11" id="gge1288_11" c_origin="4104.53,3445.909" net="" c_rotation="0" c_width="5.1181" c_height="5.1181"><ellipse cx="4104.53" cy="3445.909" rx="2.55905" ry="2.55905" stroke-width="0" c_etype="pad_shell"/></g></g><g id="topSignalSolderReal" mask="url(#topSignalSolderMask)" fill="#005CB6" stroke="#005CB6" display="none"><polyline points="4074.53 3445.91 4074.33 3445.91 4074.33 3503.84" stroke-width="1" c_shapetype="line" stroke-linecap="round" fill="none" layerid="1" net="" id="gge1152_1" locked="0"/><polyline points="4077.2961 3495.3223 4077.8743 3495.9005 4077.8743 3503.8386" stroke-width="1" c_shapetype="line" stroke-linecap="round" fill="none" layerid="1" net="" id="gge1155_1" locked="0"/><polyline points="4074.33 3507.07 4074.33 3511.07 4075.27 3512" stroke-width="1" c_shapetype="line" stroke-linecap="round" fill="none" layerid="1" net="" id="gge1161_1" locked="0"/><polyline points="4080.48 3512 4085.21 3512 4087.32 3509.89" stroke-width="1" c_shapetype="line" stroke-linecap="round" fill="none" layerid="1" net="" id="gge1164_1" locked="0"/><polyline points="4087.3223 3504.3782 4086.7827 3503.8386 4081.4173 3503.8386" stroke-width="1" c_shapetype="line" stroke-linecap="round" fill="none" layerid="1" net="" id="gge1158_1" locked="0"/><polyline points="4104.53 3445.91 4104.53 3452.53 4102.28 3454.77 4102.28 3500.83 4093.23 3509.89 4087.32 3509.89" stroke-width="1" c_shapetype="line" stroke-linecap="round" fill="none" layerid="1" net="" id="gge1044_1" locked="0"/><polyline points="4087.32 3504.38 4089.68 3504.38 4094.53 3499.53 4094.53 3445.91" stroke-width="1" c_shapetype="line" stroke-linecap="round" fill="none" layerid="1" net="" id="gge1104_1" locked="0"/><polyline points="4064.53 3445.91 4064.53 3442.92 4068.03 3439.42 4095.2 3439.42 4098.74 3442.96 4098.74 3499.65 4091.32 3507.07 4081.42 3507.07" stroke-width="1" c_shapetype="line" stroke-linecap="round" fill="none" layerid="1" net="" id="gge1089_1" locked="0"/><polyline points="4071.36 3495.32 4071.36 3462.75 4054.53 3445.91" stroke-width="1" c_shapetype="line" stroke-linecap="round" fill="none" layerid="1" net="" id="gge1083_1" locked="0"/><g c_partid="part_pad" c_etype="pinpart" layerid="1" id="gge69_1" c_origin="4087.323,3504.378" net="" c_rotation="90" c_width="3.1496" c_height="3.5433"><polygon points="4085.551 3505.9526 4085.551 3502.803 4089.0944 3502.803 4089.0944 3505.9526" stroke-width="0"/></g><g c_partid="part_pad" c_etype="pinpart" layerid="1" id="gge84_1" c_origin="4087.323,3509.89" net="" c_rotation="90" c_width="3.1496" c_height="3.5433"><polygon points="4085.551 3511.4644 4085.551 3508.3148 4089.0944 3508.3148 4089.0944 3511.4644" stroke-width="0"/></g><g c_partid="part_pad" c_etype="pinpart" layerid="1" id="gge261_1" c_origin="4071.365,3495.323" net="" c_rotation="180" c_width="3.1751" c_height="3.4016"><polygon points="4072.9526 3493.6219 4072.9526 3497.0235 4069.7775 3497.0235 4069.7775 3493.6219" stroke-width="0"/></g><g c_partid="part_pad" c_etype="pinpart" layerid="1" id="gge273_1" c_origin="4077.296,3495.323" net="" c_rotation="180" c_width="3.1751" c_height="3.4016"><polygon points="4075.7086 3493.6219 4075.7086 3497.0235 4078.8837 3497.0235 4078.8837 3493.6219" stroke-width="0"/></g><g c_partid="part_pad" c_etype="pinpart" layerid="1" id="gge381_1" c_origin="4077.874,3503.838" net="" c_rotation="0" c_width="2.3622" c_height="2.0551"><polygon points="4076.6928 3502.8109 4079.055 3502.8109 4079.055 3504.866 4076.6928 3504.866" stroke-width="0"/></g><g c_partid="part_pad" c_etype="pinpart" layerid="1" id="gge393_1" c_origin="4081.417,3503.838" net="" c_rotation="0" c_width="2.3622" c_height="2.0551"><polygon points="4080.2361 3502.8109 4082.5983 3502.8109 4082.5983 3504.866 4080.2361 3504.866" stroke-width="0"/></g><g c_partid="part_pad" c_etype="pinpart" layerid="1" id="gge405_1" c_origin="4081.417,3507.075" net="" c_rotation="0" c_width="2.3622" c_height="2.0551"><polygon points="4080.2361 3506.0471 4082.5983 3506.0471 4082.5983 3508.1023 4080.2361 3508.1023" stroke-width="0"/></g><g c_partid="part_pad" c_etype="pinpart" layerid="1" id="gge417_1" c_origin="4074.331,3507.075" net="" c_rotation="0" c_width="2.3622" c_height="2.0551"><polygon points="4073.1495 3506.0471 4075.5117 3506.0471 4075.5117 3508.1023 4073.1495 3508.1023" stroke-width="0"/></g><g c_partid="part_pad" c_etype="pinpart" layerid="1" id="gge429_1" c_origin="4074.331,3503.838" net="" c_rotation="0" c_width="2.3622" c_height="2.0551"><polygon points="4073.1495 3502.8109 4075.5117 3502.8109 4075.5117 3504.866 4073.1495 3504.866" stroke-width="0"/></g><g c_partid="part_pad" c_etype="pinpart" layerid="1" id="gge441_1" c_origin="4080.48,3512.005" net="" c_rotation="0" c_width="2.6062" c_height="5.2126"><polygon points="4077.8739 3514.0195 4078.003 3514.0154 4078.1317 3514.003 4078.2592 3513.9824 4078.3852 3513.9536 4078.5091 3513.9169 4078.6303 3513.8722 4078.7485 3513.8199 4078.8631 3513.7602 4078.9736 3513.6932 4079.0795 3513.6192 4079.1806 3513.5387 4079.2762 3513.4518 4079.3661 3513.359 4079.4499 3513.2606 4079.5272 3513.157 4079.5977 3513.0487 4079.6611 3512.9362 4079.7171 3512.8197 4079.7656 3512.7 4079.8063 3512.5773 4079.8391 3512.4523 4079.8638 3512.3255 4079.8803 3512.1974 4079.8886 3512.0684 4079.8886 3511.9392 4079.8803 3511.8102 4079.8638 3511.6821 4079.8391 3511.5553 4079.8063 3511.4303 4079.7656 3511.3076 4079.7171 3511.1879 4079.6611 3511.0714 4079.5977 3510.9589 4079.5272 3510.8506 4079.4499 3510.747 4079.3661 3510.6486 4079.2762 3510.5558 4079.1806 3510.4689 4079.0795 3510.3884 4078.9736 3510.3144 4078.8631 3510.2474 4078.7485 3510.1877 4078.6303 3510.1354 4078.5091 3510.0907 4078.3852 3510.054 4078.2592 3510.0252 4078.1317 3510.0046 4078.003 3509.9922 4077.8739 3509.9881 4077.8053 3509.9841 4077.7377 3509.9721 4077.6719 3509.9524 4077.6089 3509.9252 4077.5494 3509.8909 4077.4943 3509.8499 4077.4443 3509.8028 4077.4002 3509.7502 4077.3625 3509.6928 4077.3316 3509.6314 4077.3082 3509.5669 4077.2923 3509.5 4077.2843 3509.4318 4077.2843 3509.3632 4077.2923 3509.295 4077.3082 3509.2281 4077.3316 3509.1636 4077.3625 3509.1022 4077.4002 3509.0448 4077.4443 3508.9922 4077.4943 3508.9451 4077.5494 3508.9041 4077.6089 3508.8698 4077.6719 3508.8426 4077.7377 3508.8229 4077.8053 3508.8109 4077.8739 3508.8069 4078.0358 3508.8111 4078.1973 3508.8234 4078.358 3508.8438 4078.5174 3508.8724 4078.6752 3508.909 4078.8309 3508.9536 4078.9842 3509.0059 4079.1346 3509.066 4079.2818 3509.1337 4079.4253 3509.2086 4079.5649 3509.2908 4079.7002 3509.3799 4079.8307 3509.4758 4079.9562 3509.5782 4080.0764 3509.6867 4080.191 3509.8013 4080.2995 3509.9215 4080.4019 3510.047 4080.4978 3510.1775 4080.5869 3510.3128 4080.6691 3510.4524 4080.744 3510.5959 4080.8117 3510.7431 4080.8718 3510.8935 4080.9241 3511.0468 4080.9687 3511.2025 4081.0053 3511.3603 4081.0339 3511.5197 4081.0543 3511.6804 4081.0666 3511.8419 4081.0708 3512.0038 4081.0666 3512.1657 4081.0543 3512.3272 4081.0339 3512.4879 4081.0053 3512.6473 4080.9687 3512.8051 4080.9241 3512.9608 4080.8718 3513.1141 4080.8117 3513.2645 4080.744 3513.4117 4080.6691 3513.5552 4080.5869 3513.6948 4080.4978 3513.8301 4080.4019 3513.9606 4080.2995 3514.0861 4080.191 3514.2063 4080.0764 3514.3209 4079.9562 3514.4294 4079.8307 3514.5318 4079.7002 3514.6277 4079.5649 3514.7168 4079.4253 3514.799 4079.2818 3514.8739 4079.1346 3514.9416 4078.9842 3515.0017 4078.8309 3515.054 4078.6752 3515.0986 4078.5174 3515.1352 4078.358 3515.1638 4078.1973 3515.1842 4078.0358 3515.1965 4077.8739 3515.2007 4077.8053 3515.1967 4077.7377 3515.1847 4077.6719 3515.165 4077.6089 3515.1378 4077.5494 3515.1035 4077.4943 3515.0625 4077.4443 3515.0154 4077.4002 3514.9628 4077.3625 3514.9054 4077.3316 3514.844 4077.3082 3514.7795 4077.2923 3514.7126 4077.2843 3514.6444 4077.2843 3514.5758 4077.2923 3514.5076 4077.3082 3514.4407 4077.3316 3514.3762 4077.3625 3514.3148 4077.4002 3514.2574 4077.4443 3514.2048 4077.4943 3514.1577 4077.5494 3514.1167 4077.6089 3514.0824 4077.6719 3514.0552 4077.7377 3514.0355 4077.8053 3514.0235 4077.8739 3514.0195" stroke-width="0"/></g><g c_partid="part_pad" c_etype="pinpart" layerid="1" id="gge453_1" c_origin="4075.268,3512.005" net="" c_rotation="0" c_width="2.6064" c_height="5.2126"><polygon points="4077.8739 3509.9881 4077.7448 3509.9922 4077.6161 3510.0046 4077.4886 3510.0252 4077.3626 3510.054 4077.2387 3510.0907 4077.1175 3510.1354 4076.9993 3510.1877 4076.8847 3510.2474 4076.7742 3510.3144 4076.6683 3510.3884 4076.5672 3510.4689 4076.4716 3510.5558 4076.3817 3510.6486 4076.2979 3510.747 4076.2206 3510.8506 4076.1501 3510.9589 4076.0867 3511.0714 4076.0307 3511.1879 4075.9822 3511.3076 4075.9415 3511.4303 4075.9087 3511.5553 4075.884 3511.6821 4075.8675 3511.8102 4075.8592 3511.9392 4075.8592 3512.0684 4075.8675 3512.1974 4075.884 3512.3255 4075.9087 3512.4523 4075.9415 3512.5773 4075.9822 3512.7 4076.0307 3512.8197 4076.0867 3512.9362 4076.1501 3513.0487 4076.2206 3513.157 4076.2979 3513.2606 4076.3817 3513.359 4076.4716 3513.4518 4076.5672 3513.5387 4076.6683 3513.6192 4076.7742 3513.6932 4076.8847 3513.7602 4076.9993 3513.8199 4077.1175 3513.8722 4077.2387 3513.9169 4077.3626 3513.9536 4077.4886 3513.9824 4077.6161 3514.003 4077.7448 3514.0154 4077.8739 3514.0195 4077.9425 3514.0235 4078.0101 3514.0355 4078.0759 3514.0552 4078.1389 3514.0824 4078.1984 3514.1167 4078.2535 3514.1577 4078.3035 3514.2048 4078.3476 3514.2574 4078.3853 3514.3148 4078.4162 3514.3762 4078.4396 3514.4407 4078.4555 3514.5076 4078.4635 3514.5758 4078.4635 3514.6444 4078.4555 3514.7126 4078.4396 3514.7795 4078.4162 3514.844 4078.3853 3514.9054 4078.3476 3514.9628 4078.3035 3515.0154 4078.2535 3515.0625 4078.1984 3515.1035 4078.1389 3515.1378 4078.0759 3515.165 4078.0101 3515.1847 4077.9425 3515.1967 4077.8739 3515.2007 4077.712 3515.1965 4077.5505 3515.1842 4077.3898 3515.1638 4077.2304 3515.1352 4077.0726 3515.0986 4076.9169 3515.054 4076.7636 3515.0017 4076.6132 3514.9416 4076.466 3514.8739 4076.3225 3514.799 4076.1829 3514.7168 4076.0476 3514.6277 4075.9171 3514.5318 4075.7916 3514.4294 4075.6714 3514.3209 4075.5568 3514.2063 4075.4483 3514.0861 4075.3459 3513.9606 4075.25 3513.8301 4075.1609 3513.6948 4075.0787 3513.5552 4075.0038 3513.4117 4074.9361 3513.2645 4074.876 3513.1141 4074.8237 3512.9608 4074.7791 3512.8051 4074.7425 3512.6473 4074.7139 3512.4879 4074.6935 3512.3272 4074.6812 3512.1657 4074.677 3512.0038 4074.6812 3511.8419 4074.6935 3511.6804 4074.7139 3511.5197 4074.7425 3511.3603 4074.7791 3511.2025 4074.8237 3511.0468 4074.876 3510.8935 4074.9361 3510.7431 4075.0038 3510.5959 4075.0787 3510.4524 4075.1609 3510.3128 4075.25 3510.1775 4075.3459 3510.047 4075.4483 3509.9215 4075.5568 3509.8013 4075.6714 3509.6867 4075.7916 3509.5782 4075.9171 3509.4758 4076.0476 3509.3799 4076.1829 3509.2908 4076.3225 3509.2086 4076.466 3509.1337 4076.6132 3509.066 4076.7636 3509.0059 4076.9169 3508.9536 4077.0726 3508.909 4077.2304 3508.8724 4077.3898 3508.8438 4077.5505 3508.8234 4077.712 3508.8111 4077.8739 3508.8069 4077.9425 3508.8109 4078.0101 3508.8229 4078.0759 3508.8426 4078.1389 3508.8698 4078.1984 3508.9041 4078.2535 3508.9451 4078.3035 3508.9922 4078.3476 3509.0448 4078.3853 3509.1022 4078.4162 3509.1636 4078.4396 3509.2281 4078.4555 3509.295 4078.4635 3509.3632 4078.4635 3509.4318 4078.4555 3509.5 4078.4396 3509.5669 4078.4162 3509.6314 4078.3853 3509.6928 4078.3476 3509.7502 4078.3035 3509.8028 4078.2535 3509.8499 4078.1984 3509.8909 4078.1389 3509.9252 4078.0759 3509.9524 4078.0101 3509.9721 4077.9425 3509.9841 4077.8739 3509.9881" stroke-width="0"/></g><g c_partid="part_pad" c_etype="pinpart" layerid="11" id="gge1213_11" c_origin="4054.53,3445.909" net="" c_rotation="0" c_width="5.1181" c_height="5.1181"><ellipse cx="4054.53" cy="3445.909" rx="2.55905" ry="2.55905" stroke-width="0" c_etype="pad_shell"/></g><g c_partid="part_pad" c_etype="pinpart" layerid="11" id="gge1228_11" c_origin="4064.53,3445.909" net="" c_rotation="0" c_width="5.1181" c_height="5.1181"><ellipse cx="4064.53" cy="3445.909" rx="2.55905" ry="2.55905" stroke-width="0" c_etype="pad_shell"/></g><g c_partid="part_pad" c_etype="pinpart" layerid="11" id="gge1243_11" c_origin="4074.53,3445.909" net="" c_rotation="0" c_width="5.1181" c_height="5.1181"><ellipse cx="4074.53" cy="3445.909" rx="2.55905" ry="2.55905" stroke-width="0" c_etype="pad_shell"/></g><g c_partid="part_pad" c_etype="pinpart" layerid="11" id="gge1258_11" c_origin="4084.53,3445.909" net="" c_rotation="0" c_width="5.1181" c_height="5.1181"><ellipse cx="4084.53" cy="3445.909" rx="2.55905" ry="2.55905" stroke-width="0" c_etype="pad_shell"/></g><g c_partid="part_pad" c_etype="pinpart" layerid="11" id="gge1273_11" c_origin="4094.53,3445.909" net="" c_rotation="0" c_width="5.1181" c_height="5.1181"><ellipse cx="4094.53" cy="3445.909" rx="2.55905" ry="2.55905" stroke-width="0" c_etype="pad_shell"/></g><g c_partid="part_pad" c_etype="pinpart" layerid="11" id="gge1288_11" c_origin="4104.53,3445.909" net="" c_rotation="0" c_width="5.1181" c_height="5.1181"><ellipse cx="4104.53" cy="3445.909" rx="2.55905" ry="2.55905" stroke-width="0" c_etype="pad_shell"/></g></g><g id="topSilkLayer" fill="#FFFFFF" stroke="#FFFFFF" display="none"><g c_partid="part_pcbtext" c_etype="pinpart" c_origin="4040.8663,3470.9135" c_rotation="0" c_mirror="0" id="gge1200_3" locked="0" layerid="3" c_shapetype="group"><path c_fontsize="3.9369999999999994" c_fontfamily="" c_text="Fakulteta za Elektrotehniko" d="M 4040.8663 3466.9455 L 4040.8663 3470.6955 M 4040.8663 3466.9455 L 4043.1963 3466.9455 M 4040.8663 3468.7255 L 4042.2963 3468.7255 M 4046.5163 3468.1955 L 4046.5163 3470.6955 M 4046.5163 3468.7255 L 4046.1663 3468.3755 L 4045.8063 3468.1955 L 4045.2663 3468.1955 L 4044.9063 3468.3755 L 4044.5563 3468.7255 L 4044.3763 3469.2655 L 4044.3763 3469.6255 L 4044.5563 3470.1655 L 4044.9063 3470.5155 L 4045.2663 3470.6955 L 4045.8063 3470.6955 L 4046.1663 3470.5155 L 4046.5163 3470.1655 M 4047.7063 3466.9455 L 4047.7063 3470.6955 M 4049.4963 3468.1955 L 4047.7063 3469.9855 M 4048.4163 3469.2655 L 4049.6663 3470.6955 M 4050.8563 3468.1955 L 4050.8563 3469.9855 L 4051.0263 3470.5155 L 4051.3863 3470.6955 L 4051.9263 3470.6955 L 4052.2863 3470.5155 L 4052.8163 3469.9855 M 4052.8163 3468.1955 L 4052.8163 3470.6955 M 4054.0063 3466.9455 L 4054.0063 3470.6955 M 4055.7163 3466.9455 L 4055.7163 3469.9855 L 4055.8963 3470.5155 L 4056.2563 3470.6955 L 4056.6163 3470.6955 M 4055.1863 3468.1955 L 4056.4363 3468.1955 M 4057.7963 3469.2655 L 4059.9463 3469.2655 L 4059.9463 3468.9055 L 4059.7663 3468.5555 L 4059.5863 3468.3755 L 4059.2263 3468.1955 L 4058.6863 3468.1955 L 4058.3363 3468.3755 L 4057.9763 3468.7255 L 4057.7963 3469.2655 L 4057.7963 3469.6255 L 4057.9763 3470.1655 L 4058.3363 3470.5155 L 4058.6863 3470.6955 L 4059.2263 3470.6955 L 4059.5863 3470.5155 L 4059.9463 3470.1655 M 4061.6563 3466.9455 L 4061.6563 3469.9855 L 4061.8363 3470.5155 L 4062.1963 3470.6955 L 4062.5563 3470.6955 M 4061.1263 3468.1955 L 4062.3763 3468.1955 M 4065.8863 3468.1955 L 4065.8863 3470.6955 M 4065.8863 3468.7255 L 4065.5263 3468.3755 L 4065.1663 3468.1955 L 4064.6363 3468.1955 L 4064.2763 3468.3755 L 4063.9163 3468.7255 L 4063.7363 3469.2655 L 4063.7363 3469.6255 L 4063.9163 3470.1655 L 4064.2763 3470.5155 L 4064.6363 3470.6955 L 4065.1663 3470.6955 L 4065.5263 3470.5155 L 4065.8863 3470.1655 M 4071.7863 3468.1955 L 4069.8163 3470.6955 M 4069.8163 3468.1955 L 4071.7863 3468.1955 M 4069.8163 3470.6955 L 4071.7863 3470.6955 M 4075.1163 3468.1955 L 4075.1163 3470.6955 M 4075.1163 3468.7255 L 4074.7563 3468.3755 L 4074.4063 3468.1955 L 4073.8663 3468.1955 L 4073.5063 3468.3755 L 4073.1463 3468.7255 L 4072.9663 3469.2655 L 4072.9663 3469.6255 L 4073.1463 3470.1655 L 4073.5063 3470.5155 L 4073.8663 3470.6955 L 4074.4063 3470.6955 L 4074.7563 3470.5155 L 4075.1163 3470.1655 M 4079.0563 3466.9455 L 4079.0563 3470.6955 M 4079.0563 3466.9455 L 4081.3863 3466.9455 M 4079.0563 3468.7255 L 4080.4863 3468.7255 M 4079.0563 3470.6955 L 4081.3863 3470.6955 M 4082.5663 3466.9455 L 4082.5663 3470.6955 M 4083.7463 3469.2655 L 4085.8863 3469.2655 L 4085.8863 3468.9055 L 4085.7163 3468.5555 L 4085.5363 3468.3755 L 4085.1763 3468.1955 L 4084.6363 3468.1955 L 4084.2763 3468.3755 L 4083.9263 3468.7255 L 4083.7463 3469.2655 L 4083.7463 3469.6255 L 4083.9263 3470.1655 L 4084.2763 3470.5155 L 4084.6363 3470.6955 L 4085.1763 3470.6955 L 4085.5363 3470.5155 L 4085.8863 3470.1655 M 4087.0763 3466.9455 L 4087.0763 3470.6955 M 4088.8663 3468.1955 L 4087.0763 3469.9855 M 4087.7863 3469.2655 L 4089.0363 3470.6955 M 4090.7563 3466.9455 L 4090.7563 3469.9855 L 4090.9363 3470.5155 L 4091.2963 3470.6955 L 4091.6563 3470.6955 M 4090.2263 3468.1955 L 4091.4763 3468.1955 M 4092.8363 3468.1955 L 4092.8363 3470.6955 M 4092.8363 3469.2655 L 4093.0163 3468.7255 L 4093.3763 3468.3755 L 4093.7263 3468.1955 L 4094.2663 3468.1955 M 4096.3463 3468.1955 L 4095.9863 3468.3755 L 4095.6263 3468.7255 L 4095.4463 3469.2655 L 4095.4463 3469.6255 L 4095.6263 3470.1655 L 4095.9863 3470.5155 L 4096.3463 3470.6955 L 4096.8763 3470.6955 L 4097.2363 3470.5155 L 4097.5963 3470.1655 L 4097.7763 3469.6255 L 4097.7763 3469.2655 L 4097.5963 3468.7255 L 4097.2363 3468.3755 L 4096.8763 3468.1955 L 4096.3463 3468.1955 M 4099.4963 3466.9455 L 4099.4963 3469.9855 L 4099.6663 3470.5155 L 4100.0263 3470.6955 L 4100.3863 3470.6955 M 4098.9563 3468.1955 L 4100.2063 3468.1955 M 4101.5663 3469.2655 L 4103.7163 3469.2655 L 4103.7163 3468.9055 L 4103.5363 3468.5555 L 4103.3563 3468.3755 L 4102.9963 3468.1955 L 4102.4663 3468.1955 L 4102.1063 3468.3755 L 4101.7463 3468.7255 L 4101.5663 3469.2655 L 4101.5663 3469.6255 L 4101.7463 3470.1655 L 4102.1063 3470.5155 L 4102.4663 3470.6955 L 4102.9963 3470.6955 L 4103.3563 3470.5155 L 4103.7163 3470.1655 M 4104.8963 3466.9455 L 4104.8963 3470.6955 M 4104.8963 3468.9055 L 4105.4363 3468.3755 L 4105.7863 3468.1955 L 4106.3263 3468.1955 L 4106.6863 3468.3755 L 4106.8663 3468.9055 L 4106.8663 3470.6955 M 4108.0463 3468.1955 L 4108.0463 3470.6955 M 4108.0463 3468.9055 L 4108.5863 3468.3755 L 4108.9363 3468.1955 L 4109.4763 3468.1955 L 4109.8363 3468.3755 L 4110.0163 3468.9055 L 4110.0163 3470.6955 M 4111.1963 3466.9455 L 4111.3763 3467.1155 L 4111.5563 3466.9455 L 4111.3763 3466.7655 L 4111.1963 3466.9455 M 4111.3763 3468.1955 L 4111.3763 3470.6955 M 4112.7363 3466.9455 L 4112.7363 3470.6955 M 4114.5263 3468.1955 L 4112.7363 3469.9855 M 4113.4463 3469.2655 L 4114.7063 3470.6955 M 4116.7763 3468.1955 L 4116.4163 3468.3755 L 4116.0663 3468.7255 L 4115.8863 3469.2655 L 4115.8863 3469.6255 L 4116.0663 3470.1655 L 4116.4163 3470.5155 L 4116.7763 3470.6955 L 4117.3163 3470.6955 L 4117.6763 3470.5155 L 4118.0363 3470.1655 L 4118.2063 3469.6255 L 4118.2063 3469.2655 L 4118.0363 3468.7255 L 4117.6763 3468.3755 L 4117.3163 3468.1955 L 4116.7763 3468.1955" fill="none" stroke-width="0.8"/></g><g c_partid="part_pcbtext" c_etype="pinpart" c_origin="4086.5353,3477.2125" c_rotation="0" c_mirror="0" id="gge1203_3" locked="0" layerid="3" c_shapetype="group"><path c_fontsize="3.9369999999999994" c_fontfamily="" c_text="HW ekipa" d="M 4086.5363 3473.2355 L 4086.5363 3476.9955 M 4089.0363 3473.2355 L 4089.0363 3476.9955 M 4086.5363 3475.0255 L 4089.0363 3475.0255 M 4090.2263 3473.2355 L 4091.1163 3476.9955 M 4092.0163 3473.2355 L 4091.1163 3476.9955 M 4092.0163 3473.2355 L 4092.9063 3476.9955 M 4093.7963 3473.2355 L 4092.9063 3476.9955 M 4097.7363 3475.5655 L 4099.8863 3475.5655 L 4099.8863 3475.2055 L 4099.7063 3474.8455 L 4099.5263 3474.6755 L 4099.1663 3474.4955 L 4098.6363 3474.4955 L 4098.2763 3474.6755 L 4097.9163 3475.0255 L 4097.7363 3475.5655 L 4097.7363 3475.9255 L 4097.9163 3476.4655 L 4098.2763 3476.8155 L 4098.6363 3476.9955 L 4099.1663 3476.9955 L 4099.5263 3476.8155 L 4099.8863 3476.4655 M 4101.0663 3473.2355 L 4101.0663 3476.9955 M 4102.8563 3474.4955 L 4101.0663 3476.2855 M 4101.7863 3475.5655 L 4103.0363 3476.9955 M 4104.2163 3473.2355 L 4104.3963 3473.4155 L 4104.5763 3473.2355 L 4104.3963 3473.0655 L 4104.2163 3473.2355 M 4104.3963 3474.4955 L 4104.3963 3476.9955 M 4105.7563 3474.4955 L 4105.7563 3478.2455 M 4105.7563 3475.0255 L 4106.1163 3474.6755 L 4106.4663 3474.4955 L 4107.0063 3474.4955 L 4107.3663 3474.6755 L 4107.7263 3475.0255 L 4107.9063 3475.5655 L 4107.9063 3475.9255 L 4107.7263 3476.4655 L 4107.3663 3476.8155 L 4107.0063 3476.9955 L 4106.4663 3476.9955 L 4106.1163 3476.8155 L 4105.7563 3476.4655 M 4111.2263 3474.4955 L 4111.2263 3476.9955 M 4111.2263 3475.0255 L 4110.8763 3474.6755 L 4110.5163 3474.4955 L 4109.9763 3474.4955 L 4109.6163 3474.6755 L 4109.2663 3475.0255 L 4109.0863 3475.5655 L 4109.0863 3475.9255 L 4109.2663 3476.4655 L 4109.6163 3476.8155 L 4109.9763 3476.9955 L 4110.5163 3476.9955 L 4110.8763 3476.8155 L 4111.2263 3476.4655" fill="none" stroke-width="0.8"/></g><g c_partid="part_pcbtext" c_etype="pinpart" c_origin="4042.0473,3477.2125" c_rotation="0" c_mirror="0" id="gge1206_3" locked="0" layerid="3" c_shapetype="group"><path c_fontsize="3.9369999999999994" c_fontfamily="" c_text="14. 5. 2024" d="M 4042.0463 3473.9555 L 4042.4063 3473.7755 L 4042.9463 3473.2355 L 4042.9463 3476.9955 M 4045.9163 3473.2355 L 4044.1263 3475.7455 L 4046.8063 3475.7455 M 4045.9163 3473.2355 L 4045.9163 3476.9955 M 4048.1663 3476.1055 L 4047.9863 3476.2855 L 4048.1663 3476.4655 L 4048.3463 3476.2855 L 4048.1663 3476.1055 M 4054.4263 3473.2355 L 4052.6463 3473.2355 L 4052.4663 3474.8455 L 4052.6463 3474.6755 L 4053.1763 3474.4955 L 4053.7163 3474.4955 L 4054.2563 3474.6755 L 4054.6063 3475.0255 L 4054.7863 3475.5655 L 4054.7863 3475.9255 L 4054.6063 3476.4655 L 4054.2563 3476.8155 L 4053.7163 3476.9955 L 4053.1763 3476.9955 L 4052.6463 3476.8155 L 4052.4663 3476.6355 L 4052.2863 3476.2855 M 4056.1463 3476.1055 L 4055.9663 3476.2855 L 4056.1463 3476.4655 L 4056.3263 3476.2855 L 4056.1463 3476.1055 M 4060.4463 3474.1355 L 4060.4463 3473.9555 L 4060.6263 3473.5955 L 4060.8063 3473.4155 L 4061.1563 3473.2355 L 4061.8763 3473.2355 L 4062.2363 3473.4155 L 4062.4163 3473.5955 L 4062.5863 3473.9555 L 4062.5863 3474.3155 L 4062.4163 3474.6755 L 4062.0563 3475.2055 L 4060.2663 3476.9955 L 4062.7663 3476.9955 M 4065.0263 3473.2355 L 4064.4863 3473.4155 L 4064.1263 3473.9555 L 4063.9563 3474.8455 L 4063.9563 3475.3855 L 4064.1263 3476.2855 L 4064.4863 3476.8155 L 4065.0263 3476.9955 L 4065.3863 3476.9955 L 4065.9163 3476.8155 L 4066.2763 3476.2855 L 4066.4563 3475.3855 L 4066.4563 3474.8455 L 4066.2763 3473.9555 L 4065.9163 3473.4155 L 4065.3863 3473.2355 L 4065.0263 3473.2355 M 4067.8163 3474.1355 L 4067.8163 3473.9555 L 4067.9963 3473.5955 L 4068.1763 3473.4155 L 4068.5363 3473.2355 L 4069.2463 3473.2355 L 4069.6063 3473.4155 L 4069.7863 3473.5955 L 4069.9663 3473.9555 L 4069.9663 3474.3155 L 4069.7863 3474.6755 L 4069.4263 3475.2055 L 4067.6363 3476.9955 L 4070.1463 3476.9955 M 4073.1163 3473.2355 L 4071.3263 3475.7455 L 4074.0063 3475.7455 M 4073.1163 3473.2355 L 4073.1163 3476.9955" fill="none" stroke-width="0.8"/></g><g c_partid="part_pcbtext" c_etype="" c_origin="4079.528,3432.834" c_rotation="0" c_mirror="0" id="gge737_3" locked="0" layerid="3" c_shapetype="group" display="none"><path c_fontsize="4.5" c_fontfamily="" c_text="PIN HEAD 2,54 MM" d="M 4079.53 3428.29L4079.53 3432.59 M 4079.53 3428.29L4081.37 3428.29 L4081.98 3428.5 L4082.19 3428.7 L4082.39 3429.11 L4082.39 3429.72 L4082.19 3430.13 L4081.98 3430.34 L4081.37 3430.54 L4079.53 3430.54 M 4083.74 3428.29L4083.74 3432.59 M 4085.09 3428.29L4085.09 3432.59 M 4085.09 3428.29L4087.96 3432.59 M 4087.96 3428.29L4087.96 3432.59 M 4092.46 3428.29L4092.46 3432.59 M 4095.32 3428.29L4095.32 3432.59 M 4092.46 3430.34L4095.32 3430.34 M 4096.67 3428.29L4096.67 3432.59 M 4096.67 3428.29L4099.33 3428.29 M 4096.67 3430.34L4098.31 3430.34 M 4096.67 3432.59L4099.33 3432.59 M 4102.31 3428.29L4100.68 3432.59 M 4102.31 3428.29L4103.95 3432.59 M 4101.29 3431.16L4103.34 3431.16 M 4105.3 3428.29L4105.3 3432.59 M 4105.3 3428.29L4106.73 3428.29 L4107.35 3428.5 L4107.76 3428.91 L4107.96 3429.32 L4108.16 3429.93 L4108.16 3430.95 L4107.96 3431.57 L4107.76 3431.97 L4107.35 3432.38 L4106.73 3432.59 L4105.3 3432.59 M 4112.87 3429.32L4112.87 3429.11 L4113.07 3428.7 L4113.28 3428.5 L4113.69 3428.29 L4114.51 3428.29 L4114.91 3428.5 L4115.12 3428.7 L4115.32 3429.11 L4115.32 3429.52 L4115.12 3429.93 L4114.71 3430.54 L4112.66 3432.59 L4115.53 3432.59 M 4117.29 3431.77L4117.08 3431.97 L4116.88 3431.77 L4117.08 3431.57 L4117.29 3431.77 L4117.29 3432.18 L4116.88 3432.59 M 4121.09 3428.29L4119.05 3428.29 L4118.84 3430.13 L4119.05 3429.93 L4119.66 3429.72 L4120.27 3429.72 L4120.89 3429.93 L4121.3 3430.34 L4121.5 3430.95 L4121.5 3431.36 L4121.3 3431.97 L4120.89 3432.38 L4120.27 3432.59 L4119.66 3432.59 L4119.05 3432.38 L4118.84 3432.18 L4118.64 3431.77 M 4124.9 3428.29L4122.85 3431.16 L4125.92 3431.16 M 4124.9 3428.29L4124.9 3432.59 M 4130.42 3428.29L4130.42 3432.59 M 4130.42 3428.29L4132.06 3432.59 M 4133.69 3428.29L4132.06 3432.59 M 4133.69 3428.29L4133.69 3432.59 M 4135.04 3428.29L4135.04 3432.59 M 4135.04 3428.29L4136.68 3432.59 M 4138.31 3428.29L4136.68 3432.59 M 4138.31 3428.29L4138.31 3432.59 " fill="none" stroke-width="0.6" c_note="note_name" style=""/></g><g c_partid="part_pcbtext" c_etype="" c_origin="4102.677,3457.1338" c_rotation="0" c_mirror="0" id="gge743_3" locked="0" layerid="3" c_shapetype="group"><path c_fontsize="4.5" c_fontfamily="" c_text="U2" d="M 4102.68 3452.5978 L 4102.68 3455.6578 L 4102.88 3456.2778 L 4103.29 3456.6878 L 4103.9 3456.8878 L 4104.31 3456.8878 L 4104.93 3456.6878 L 4105.34 3456.2778 L 4105.54 3455.6578 L 4105.54 3452.5978 M 4107.1 3453.6178 L 4107.1 3453.4078 L 4107.3 3452.9978 L 4107.5 3452.7978 L 4107.91 3452.5978 L 4108.73 3452.5978 L 4109.14 3452.7978 L 4109.35 3452.9978 L 4109.55 3453.4078 L 4109.55 3453.8178 L 4109.35 3454.2278 L 4108.94 3454.8478 L 4106.89 3456.8878 L 4109.75 3456.8878" fill="none" stroke-width="0.6" c_note="note_pre" style=""/></g><g c_partid="part_pcbtext" c_etype="" c_origin="4076.322,3508.133" c_rotation="90" c_mirror="0" id="gge9_3" locked="0" layerid="3" c_shapetype="group" display="none"><path c_fontsize="4.5" c_fontfamily="" c_text="2.2uF" d="M 4072.8027 3507.9337 L 4072.6027 3507.9337 L 4072.1927 3507.7237 L 4071.9827 3507.5237 L 4071.7827 3507.1137 L 4071.7827 3506.2937 L 4071.9827 3505.8837 L 4072.1927 3505.6837 L 4072.6027 3505.4737 L 4073.0127 3505.4737 L 4073.4227 3505.6837 L 4074.0327 3506.0837 L 4076.0727 3508.1337 L 4076.0727 3505.2737 M 4075.0527 3503.7137 L 4075.2627 3503.9237 L 4075.4627 3503.7137 L 4075.2627 3503.5137 L 4075.0527 3503.7137 M 4072.8027 3501.9537 L 4072.6027 3501.9537 L 4072.1927 3501.7537 L 4071.9827 3501.5437 L 4071.7827 3501.1337 L 4071.7827 3500.3237 L 4071.9827 3499.9137 L 4072.1927 3499.7037 L 4072.6027 3499.5037 L 4073.0127 3499.5037 L 4073.4227 3499.7037 L 4074.0327 3500.1137 L 4076.0727 3502.1637 L 4076.0727 3499.2937 M 4073.2127 3497.9437 L 4075.2627 3497.9437 L 4075.8727 3497.7437 L 4076.0727 3497.3337 L 4076.0727 3496.7237 L 4075.8727 3496.3137 L 4075.2627 3495.6937 M 4073.2127 3495.6937 L 4076.0727 3495.6937 M 4071.7827 3494.3437 L 4076.0727 3494.3437 M 4071.7827 3494.3437 L 4071.7827 3491.6837 M 4073.8227 3494.3437 L 4073.8227 3492.7137" fill="none" stroke-width="0.6" c_note="note_name" style=""/></g><g c_partid="part_pcbtext" c_etype="" c_origin="4092.4408,3512.6455" c_rotation="0" c_mirror="0" id="gge15_3" locked="0" layerid="3" c_shapetype="group"><path c_fontsize="4.5" c_fontfamily="" c_text="C1" d="M 4095.5107 3509.1261 L 4095.3007 3508.7161 L 4094.8907 3508.3061 L 4094.4907 3508.1061 L 4093.6707 3508.1061 L 4093.2607 3508.3061 L 4092.8507 3508.7161 L 4092.6407 3509.1261 L 4092.4407 3509.7461 L 4092.4407 3510.7661 L 4092.6407 3511.3761 L 4092.8507 3511.7861 L 4093.2607 3512.1961 L 4093.6707 3512.3961 L 4094.4907 3512.3961 L 4094.8907 3512.1961 L 4095.3007 3511.7861 L 4095.5107 3511.3761 M 4096.8607 3508.9261 L 4097.2707 3508.7161 L 4097.8807 3508.1061 L 4097.8807 3512.3961" fill="none" stroke-width="0.6" c_note="note_pre" style=""/></g><g c_partid="part_pcbtext" c_etype="" c_origin="4074.331,3506.322" c_rotation="180" c_mirror="0" id="gge219_3" locked="0" layerid="3" c_shapetype="group" display="none"><path c_fontsize="4.5" c_fontfamily="" c_text="51" d="M 4071.8806 3510.8627 L 4073.9206 3510.8627 L 4074.1306 3509.0227 L 4073.9206 3509.2227 L 4073.3106 3509.4327 L 4072.6906 3509.4327 L 4072.0806 3509.2227 L 4071.6706 3508.8227 L 4071.4706 3508.2027 L 4071.4706 3507.7927 L 4071.6706 3507.1827 L 4072.0806 3506.7727 L 4072.6906 3506.5727 L 4073.3106 3506.5727 L 4073.9206 3506.7727 L 4074.1306 3506.9727 L 4074.3306 3507.3827 M 4070.1206 3510.0427 L 4069.7106 3510.2527 L 4069.0906 3510.8627 L 4069.0906 3506.5727" fill="none" stroke-width="0.6" c_note="note_name" style=""/></g><g c_partid="part_pcbtext" c_etype="" c_origin="4082.2046,3497.6849" c_rotation="0" c_mirror="0" id="gge225_3" locked="0" layerid="3" c_shapetype="group"><path c_fontsize="4.5" c_fontfamily="" c_text="R1" d="M 4082.205 3493.1444 L 4082.205 3497.4344 M 4082.205 3493.1444 L 4084.045 3493.1444 L 4084.655 3493.3444 L 4084.865 3493.5544 L 4085.065 3493.9644 L 4085.065 3494.3744 L 4084.865 3494.7844 L 4084.655 3494.9844 L 4084.045 3495.1844 L 4082.205 3495.1844 M 4083.635 3495.1844 L 4085.065 3497.4344 M 4086.415 3493.9644 L 4086.825 3493.7544 L 4087.445 3493.1444 L 4087.445 3497.4344" fill="none" stroke-width="0.6" c_note="note_pre" style=""/></g><g c_partid="part_pcbtext" c_etype="" c_origin="4076.874,3493.076" c_rotation="0" c_mirror="0" id="gge291_3" locked="0" layerid="3" c_shapetype="group" display="none"><path c_fontsize="4.5" c_fontfamily="" c_text="SPH0645LM4H-1-8" d="M 4079.7339 3489.1447 L 4079.3239 3488.7347 L 4078.7139 3488.5347 L 4077.8939 3488.5347 L 4077.2839 3488.7347 L 4076.8739 3489.1447 L 4076.8739 3489.5547 L 4077.0739 3489.9647 L 4077.2839 3490.1747 L 4077.6939 3490.3747 L 4078.9239 3490.7847 L 4079.3239 3490.9847 L 4079.5339 3491.1947 L 4079.7339 3491.6047 L 4079.7339 3492.2147 L 4079.3239 3492.6247 L 4078.7139 3492.8247 L 4077.8939 3492.8247 L 4077.2839 3492.6247 L 4076.8739 3492.2147 M 4081.0839 3488.5347 L 4081.0839 3492.8247 M 4081.0839 3488.5347 L 4082.9239 3488.5347 L 4083.5439 3488.7347 L 4083.7439 3488.9447 L 4083.9539 3489.3547 L 4083.9539 3489.9647 L 4083.7439 3490.3747 L 4083.5439 3490.5747 L 4082.9239 3490.7847 L 4081.0839 3490.7847 M 4085.3039 3488.5347 L 4085.3039 3492.8247 M 4088.1639 3488.5347 L 4088.1639 3492.8247 M 4085.3039 3490.5747 L 4088.1639 3490.5747 M 4090.7439 3488.5347 L 4090.1239 3488.7347 L 4089.7239 3489.3547 L 4089.5139 3490.3747 L 4089.5139 3490.9847 L 4089.7239 3492.0147 L 4090.1239 3492.6247 L 4090.7439 3492.8247 L 4091.1539 3492.8247 L 4091.7639 3492.6247 L 4092.1739 3492.0147 L 4092.3739 3490.9847 L 4092.3739 3490.3747 L 4092.1739 3489.3547 L 4091.7639 3488.7347 L 4091.1539 3488.5347 L 4090.7439 3488.5347 M 4096.1839 3489.1447 L 4095.9739 3488.7347 L 4095.3639 3488.5347 L 4094.9539 3488.5347 L 4094.3439 3488.7347 L 4093.9339 3489.3547 L 4093.7239 3490.3747 L 4093.7239 3491.3947 L 4093.9339 3492.2147 L 4094.3439 3492.6247 L 4094.9539 3492.8247 L 4095.1639 3492.8247 L 4095.7739 3492.6247 L 4096.1839 3492.2147 L 4096.3839 3491.6047 L 4096.3839 3491.3947 L 4096.1839 3490.7847 L 4095.7739 3490.3747 L 4095.1639 3490.1747 L 4094.9539 3490.1747 L 4094.3439 3490.3747 L 4093.9339 3490.7847 L 4093.7239 3491.3947 M 4099.7839 3488.5347 L 4097.7339 3491.3947 L 4100.8039 3491.3947 M 4099.7839 3488.5347 L 4099.7839 3492.8247 M 4104.6139 3488.5347 L 4102.5639 3488.5347 L 4102.3639 3490.3747 L 4102.5639 3490.1747 L 4103.1739 3489.9647 L 4103.7939 3489.9647 L 4104.4039 3490.1747 L 4104.8139 3490.5747 L 4105.0239 3491.1947 L 4105.0239 3491.6047 L 4104.8139 3492.2147 L 4104.4039 3492.6247 L 4103.7939 3492.8247 L 4103.1739 3492.8247 L 4102.5639 3492.6247 L 4102.3639 3492.4247 L 4102.1539 3492.0147 M 4106.3739 3488.5347 L 4106.3739 3492.8247 M 4106.3739 3492.8247 L 4108.8239 3492.8247 M 4110.1739 3488.5347 L 4110.1739 3492.8247 M 4110.1739 3488.5347 L 4111.8139 3492.8247 M 4113.4439 3488.5347 L 4111.8139 3492.8247 M 4113.4439 3488.5347 L 4113.4439 3492.8247 M 4116.8439 3488.5347 L 4114.7939 3491.3947 L 4117.8639 3491.3947 M 4116.8439 3488.5347 L 4116.8439 3492.8247 M 4119.2139 3488.5347 L 4119.2139 3492.8247 M 4122.0739 3488.5347 L 4122.0739 3492.8247 M 4119.2139 3490.5747 L 4122.0739 3490.5747 M 4123.4239 3490.9847 L 4127.1139 3490.9847 M 4128.4639 3489.3547 L 4128.8739 3489.1447 L 4129.4839 3488.5347 L 4129.4839 3492.8247 M 4130.8339 3490.9847 L 4134.5139 3490.9847 M 4136.8839 3488.5347 L 4136.2739 3488.7347 L 4136.0739 3489.1447 L 4136.0739 3489.5547 L 4136.2739 3489.9647 L 4136.6839 3490.1747 L 4137.5039 3490.3747 L 4138.1139 3490.5747 L 4138.5239 3490.9847 L 4138.7239 3491.3947 L 4138.7239 3492.0147 L 4138.5239 3492.4247 L 4138.3239 3492.6247 L 4137.7039 3492.8247 L 4136.8839 3492.8247 L 4136.2739 3492.6247 L 4136.0739 3492.4247 L 4135.8639 3492.0147 L 4135.8639 3491.3947 L 4136.0739 3490.9847 L 4136.4739 3490.5747 L 4137.0939 3490.3747 L 4137.9139 3490.1747 L 4138.3239 3489.9647 L 4138.5239 3489.5547 L 4138.5239 3489.1447 L 4138.3239 3488.7347 L 4137.7039 3488.5347 L 4136.8839 3488.5347" fill="none" stroke-width="0.6" c_note="note_name" style=""/></g><g c_partid="part_pcbtext" c_etype="" c_origin="4065.2755,3516.1888" c_rotation="0" c_mirror="0" id="gge297_3" locked="0" layerid="3" c_shapetype="group"><path c_fontsize="4.5" c_fontfamily="" c_text="U1" d="M 4065.2748 3511.6474 L 4065.2748 3514.7174 L 4065.4748 3515.3274 L 4065.8848 3515.7374 L 4066.5048 3515.9374 L 4066.9148 3515.9374 L 4067.5248 3515.7374 L 4067.9348 3515.3274 L 4068.1348 3514.7174 L 4068.1348 3511.6474 M 4069.4848 3512.4674 L 4069.8948 3512.2574 L 4070.5148 3511.6474 L 4070.5148 3515.9374" fill="none" stroke-width="0.6" c_note="note_pre" style=""/></g><polyline points="4049.53 3440.9875 4109.5299 3440.9875 4109.5299 3450.83 4049.53 3450.83 4049.53 3440.9875" stroke-width="0.2" c_shapetype="line" stroke-linecap="round" fill="none" layerid="3" net="" id="gge1210_3" locked="0"/><polyline points="4085.7488 3501.6612 4088.8985 3501.6612" stroke-width="1" c_shapetype="line" stroke-linecap="round" fill="none" layerid="3" net="" id="gge30_3" locked="0"/><polyline points="4084.5289 3506.0303 4084.5289 3502.8808" stroke-width="1" c_shapetype="line" stroke-linecap="round" fill="none" layerid="3" net="" id="gge33_3" locked="0"/><polyline points="4090.1181 3506.0303 4090.1181 3502.8808" stroke-width="1" c_shapetype="line" stroke-linecap="round" fill="none" layerid="3" net="" id="gge36_3" locked="0"/><polyline points="4084.506 3508.2976 4084.506 3511.4472" stroke-width="1" c_shapetype="line" stroke-linecap="round" fill="none" layerid="3" net="" id="gge39_3" locked="0"/><polyline points="4085.7258 3512.667 4088.8753 3512.667" stroke-width="1" c_shapetype="line" stroke-linecap="round" fill="none" layerid="3" net="" id="gge42_3" locked="0"/><polyline points="4090.095 3508.2976 4090.095 3511.4472" stroke-width="1" c_shapetype="line" stroke-linecap="round" fill="none" layerid="3" net="" id="gge45_3" locked="0"/><polyline points="4072.6526 3492.7219 4068.8775 3492.7219 4068.8775 3497.9235 4072.6526 3497.9235" stroke-width="0.6" c_shapetype="line" stroke-linecap="round" fill="none" layerid="3" net="" id="gge246_3" locked="0"/><polyline points="4076.0086 3492.7219 4079.7837 3492.7219 4079.7837 3497.9235 4076.0086 3497.9235" stroke-width="0.6" c_shapetype="line" stroke-linecap="round" fill="none" layerid="3" net="" id="gge249_3" locked="0"/><polyline points="4072.3621 3502.0156 4083.3857 3502.0156 4083.3857 3502.2125" stroke-width="0.5" c_shapetype="line" stroke-linecap="round" fill="none" layerid="3" net="" id="gge339_3" locked="0"/><polyline points="4072.3621 3502.0156 4072.3621 3502.2125 4072.3621 3516.3857 4083.3857 3516.3857 4083.3857 3502.2125" stroke-width="0.5" c_shapetype="line" stroke-linecap="round" fill="none" layerid="3" net="" id="gge342_3" locked="0"/><path d="M 4085.7258 3512.6672 A 1.2198 1.2198 0 0 1 4084.506 3511.4474" locked="0" c_shapetype="line" fill="none" stroke-width="1" c_helper_type="arc2" net="" layerid="3" id="gge48_3"/><path d="M 4090.0952 3511.4474 A 1.2198 1.2198 0 0 1 4088.8753 3512.6672" locked="0" c_shapetype="line" fill="none" stroke-width="1" c_helper_type="arc2" net="" layerid="3" id="gge51_3"/><path d="M 4084.5289 3502.881 A 1.2198 1.2198 0 0 1 4085.7488 3501.6612" locked="0" c_shapetype="line" fill="none" stroke-width="1" c_helper_type="arc2" net="" layerid="3" id="gge54_3"/><path d="M 4088.8983 3501.6612 A 1.2198 1.2198 0 0 1 4090.1181 3502.881" locked="0" c_shapetype="line" fill="none" stroke-width="1" c_helper_type="arc2" net="" layerid="3" id="gge57_3"/><circle cx="4071.378" cy="3503.789" r="0.295" stroke-width="0.5906" fill="none" layerid="3" id="gge345_3" locked="0" c_shapetype="line"/></g><path d="M4020 3518.551,4020 3459.4961,4043.6156 3459.496,4043.6212 3459.4958,4043.6218 3459.4958,4043.6219 3459.4946,4043.622 3459.4882,4043.622 3428,4130.236 3428,4130.236 3487.055,4106.622 3487.0549,4106.614 3487.0551,4106.6138 3487.0627,4106.6138 3518.551z" stroke="none" id="bottomBoardSolderReal" mask="url(#bottomBoardSolderMask)" fill="#002966"/><g id="bottomSignalReal" fill="#DCAA14" stroke="#DCAA14"><g c_partid="part_pad" c_etype="pinpart" layerid="11" id="gge1213_11" c_origin="4054.53,3445.909" net="" c_rotation="0" c_width="5.1181" c_height="5.1181"><ellipse cx="4054.53" cy="3445.909" rx="2.55905" ry="2.55905" stroke-width="0" c_etype="pad_hole"/></g><g c_partid="part_pad" c_etype="pinpart" layerid="11" id="gge1228_11" c_origin="4064.53,3445.909" net="" c_rotation="0" c_width="5.1181" c_height="5.1181"><ellipse cx="4064.53" cy="3445.909" rx="2.55905" ry="2.55905" stroke-width="0" c_etype="pad_hole"/></g><g c_partid="part_pad" c_etype="pinpart" layerid="11" id="gge1243_11" c_origin="4074.53,3445.909" net="" c_rotation="0" c_width="5.1181" c_height="5.1181"><ellipse cx="4074.53" cy="3445.909" rx="2.55905" ry="2.55905" stroke-width="0" c_etype="pad_hole"/></g><g c_partid="part_pad" c_etype="pinpart" layerid="11" id="gge1258_11" c_origin="4084.53,3445.909" net="" c_rotation="0" c_width="5.1181" c_height="5.1181"><ellipse cx="4084.53" cy="3445.909" rx="2.55905" ry="2.55905" stroke-width="0" c_etype="pad_hole"/></g><g c_partid="part_pad" c_etype="pinpart" layerid="11" id="gge1273_11" c_origin="4094.53,3445.909" net="" c_rotation="0" c_width="5.1181" c_height="5.1181"><ellipse cx="4094.53" cy="3445.909" rx="2.55905" ry="2.55905" stroke-width="0" c_etype="pad_hole"/></g><g c_partid="part_pad" c_etype="pinpart" layerid="11" id="gge1288_11" c_origin="4104.53,3445.909" net="" c_rotation="0" c_width="5.1181" c_height="5.1181"><ellipse cx="4104.53" cy="3445.909" rx="2.55905" ry="2.55905" stroke-width="0" c_etype="pad_hole"/></g></g><g id="bottomSignalSolderReal" mask="url(#bottomSignalSolderMask)" fill="#005CB6" stroke="#005CB6"><g c_partid="part_pad" c_etype="pinpart" layerid="11" id="gge1213_11" c_origin="4054.53,3445.909" net="" c_rotation="0" c_width="5.1181" c_height="5.1181"><ellipse cx="4054.53" cy="3445.909" rx="2.55905" ry="2.55905" stroke-width="0" c_etype="pad_hole"/></g><g c_partid="part_pad" c_etype="pinpart" layerid="11" id="gge1228_11" c_origin="4064.53,3445.909" net="" c_rotation="0" c_width="5.1181" c_height="5.1181"><ellipse cx="4064.53" cy="3445.909" rx="2.55905" ry="2.55905" stroke-width="0" c_etype="pad_hole"/></g><g c_partid="part_pad" c_etype="pinpart" layerid="11" id="gge1243_11" c_origin="4074.53,3445.909" net="" c_rotation="0" c_width="5.1181" c_height="5.1181"><ellipse cx="4074.53" cy="3445.909" rx="2.55905" ry="2.55905" stroke-width="0" c_etype="pad_hole"/></g><g c_partid="part_pad" c_etype="pinpart" layerid="11" id="gge1258_11" c_origin="4084.53,3445.909" net="" c_rotation="0" c_width="5.1181" c_height="5.1181"><ellipse cx="4084.53" cy="3445.909" rx="2.55905" ry="2.55905" stroke-width="0" c_etype="pad_hole"/></g><g c_partid="part_pad" c_etype="pinpart" layerid="11" id="gge1273_11" c_origin="4094.53,3445.909" net="" c_rotation="0" c_width="5.1181" c_height="5.1181"><ellipse cx="4094.53" cy="3445.909" rx="2.55905" ry="2.55905" stroke-width="0" c_etype="pad_hole"/></g><g c_partid="part_pad" c_etype="pinpart" layerid="11" id="gge1288_11" c_origin="4104.53,3445.909" net="" c_rotation="0" c_width="5.1181" c_height="5.1181"><ellipse cx="4104.53" cy="3445.909" rx="2.55905" ry="2.55905" stroke-width="0" c_etype="pad_hole"/></g></g></g></g></svg>